<svg width="259" height="80" viewBox="0 0 259 80" fill="none" xmlns="http://www.w3.org/2000/svg">
<rect width="258.39" height="80" rx="38" fill="#DFFFCB"/>
<g clip-path="url(#clip0_238_2117)">
<g clip-path="url(#clip1_238_2117)">
<path d="M54.1244 30.5969C54.1243 30.5969 54.1246 30.597 54.1244 30.5969C53.6198 30.7353 53.1344 30.9759 52.6987 31.3219C52.3239 31.6197 52.0169 31.9713 51.7799 32.3569C51.7797 32.3568 51.7802 32.357 51.7799 32.3569C52.0169 31.9713 52.3239 31.6197 52.6987 31.3219C53.1344 30.9759 53.6198 30.7353 54.1244 30.5969Z" fill="#273F2B"/>
<path d="M50.9918 29.279C50.1316 29.0653 49.232 28.9519 48.3057 28.9519C42.1728 28.9519 37.2012 33.9236 37.2012 40.0564C37.2012 41.947 37.6736 43.7272 38.5069 45.2853L37.2012 51.161L43.0768 49.8553C44.635 50.6886 46.4152 51.161 48.3057 51.161C54.4385 51.161 59.4102 46.1892 59.4102 40.0564C59.4102 39.9008 59.407 39.7458 59.4007 39.5916C59.374 39.6136 59.347 39.6353 59.3198 39.6568C58.526 40.2876 57.6324 40.7077 56.7068 40.9251C56.272 45.1811 52.6765 48.5016 48.3057 48.5016C46.8632 48.5016 45.5127 48.1422 44.3308 47.5102L43.4619 47.0456L40.7037 47.6584L41.3166 44.9003L40.852 44.0313C40.22 42.8495 39.8605 41.4989 39.8605 40.0564C39.8605 35.3923 43.6416 31.6112 48.3057 31.6112C48.588 31.6112 48.8671 31.6251 49.1422 31.6521C49.5557 30.7569 50.1752 29.9407 50.9918 29.279Z" fill="#273F2B"/>
<path d="M52.6991 31.3219C50.9729 32.6933 50.6852 35.2045 52.0566 36.9307C53.428 38.6569 55.9391 38.9446 57.6654 37.5732C59.3916 36.2018 59.6793 33.6907 58.3079 31.9645C56.9365 30.2382 54.4254 29.9506 52.6991 31.3219Z" fill="#3DC712"/>
</g>
</g>
<path d="M73.3425 35.3213V33.7273H82.8407V35.3213H79.0115V46H77.1658V35.3213H73.3425ZM86.222 46.2037C85.6387 46.2037 85.1114 46.0959 84.64 45.8801C84.1685 45.6604 83.795 45.3428 83.5194 44.9273C83.2477 44.5119 83.1119 44.0025 83.1119 43.3992C83.1119 42.8799 83.2117 42.4524 83.4115 42.1168C83.6112 41.7812 83.8809 41.5156 84.2205 41.3198C84.5601 41.1241 84.9396 40.9763 85.3591 40.8764C85.7785 40.7765 86.206 40.7006 86.6415 40.6487C87.1928 40.5847 87.6402 40.5328 87.9838 40.4929C88.3274 40.4489 88.5771 40.379 88.7329 40.2831C88.8887 40.1872 88.9666 40.0314 88.9666 39.8157V39.7737C88.9666 39.2504 88.8188 38.8449 88.5231 38.5573C88.2315 38.2696 87.796 38.1258 87.2168 38.1258C86.6135 38.1258 86.1381 38.2596 85.7905 38.5273C85.447 38.791 85.2092 39.0846 85.0774 39.4082L83.3935 39.0247C83.5933 38.4654 83.8849 38.0139 84.2684 37.6704C84.6559 37.3228 85.1014 37.0711 85.6048 36.9153C86.1081 36.7555 86.6375 36.6756 87.1928 36.6756C87.5603 36.6756 87.9498 36.7195 88.3613 36.8074C88.7768 36.8913 89.1643 37.0471 89.5239 37.2749C89.8874 37.5026 90.1851 37.8282 90.4168 38.2516C90.6485 38.6711 90.7643 39.2164 90.7643 39.8876V46H89.0145V44.7416H88.9426C88.8267 44.9733 88.653 45.201 88.4213 45.4247C88.1895 45.6484 87.8919 45.8342 87.5284 45.982C87.1648 46.1298 86.7294 46.2037 86.222 46.2037ZM86.6115 44.7655C87.1069 44.7655 87.5304 44.6677 87.8819 44.4719C88.2375 44.2761 88.5071 44.0205 88.6909 43.7049C88.8787 43.3853 88.9726 43.0437 88.9726 42.6801V41.4936C88.9086 41.5575 88.7848 41.6175 88.601 41.6734C88.4213 41.7253 88.2155 41.7713 87.9838 41.8112C87.7521 41.8472 87.5264 41.8811 87.3066 41.9131C87.0869 41.9411 86.9031 41.965 86.7553 41.985C86.4078 42.0289 86.0902 42.1028 85.8025 42.2067C85.5189 42.3106 85.2911 42.4604 85.1194 42.6562C84.9516 42.8479 84.8677 43.1036 84.8677 43.4232C84.8677 43.8667 85.0315 44.2022 85.3591 44.43C85.6867 44.6537 86.1041 44.7655 86.6115 44.7655ZM94.9426 33.7273V46H93.1509V33.7273H94.9426ZM99.0011 42.8779L98.9891 40.6906H99.3007L102.968 36.7955H105.113L100.931 41.2299H100.649L99.0011 42.8779ZM97.3531 46V33.7273H99.1449V46H97.3531ZM103.166 46L99.87 41.6254L101.104 40.373L105.365 46H103.166ZM113.208 46L110.499 36.7955H112.351L114.155 43.555H114.245L116.054 36.7955H117.906L119.704 43.5251H119.794L121.585 36.7955H123.437L120.735 46H118.907L117.037 39.3543H116.899L115.03 46H113.208ZM125.138 46V36.7955H126.929V46H125.138ZM126.042 35.3752C125.731 35.3752 125.463 35.2714 125.239 35.0636C125.02 34.8519 124.91 34.6002 124.91 34.3085C124.91 34.0129 125.02 33.7612 125.239 33.5535C125.463 33.3418 125.731 33.2359 126.042 33.2359C126.354 33.2359 126.62 33.3418 126.839 33.5535C127.063 33.7612 127.175 34.0129 127.175 34.3085C127.175 34.6002 127.063 34.8519 126.839 35.0636C126.62 35.2714 126.354 35.3752 126.042 35.3752ZM133.636 36.7955V38.2337H128.609V36.7955H133.636ZM129.957 34.5902H131.749V43.2974C131.749 43.6449 131.801 43.9066 131.905 44.0824C132.009 44.2542 132.142 44.372 132.306 44.4359C132.474 44.4959 132.656 44.5258 132.851 44.5258C132.995 44.5258 133.121 44.5158 133.229 44.4959C133.337 44.4759 133.421 44.4599 133.481 44.4479L133.804 45.9281C133.7 45.968 133.553 46.008 133.361 46.0479C133.169 46.0919 132.929 46.1159 132.642 46.1199C132.17 46.1278 131.731 46.0439 131.323 45.8682C130.916 45.6924 130.586 45.4207 130.335 45.0532C130.083 44.6856 129.957 44.2242 129.957 43.6689V34.5902ZM137.608 40.5348V46H135.816V33.7273H137.584V38.2936H137.698C137.914 37.7982 138.243 37.4047 138.687 37.1131C139.13 36.8214 139.709 36.6756 140.425 36.6756C141.056 36.6756 141.607 36.8054 142.078 37.0651C142.554 37.3248 142.921 37.7123 143.181 38.2277C143.445 38.739 143.577 39.3782 143.577 40.1453V46H141.785V40.361C141.785 39.6859 141.611 39.1625 141.263 38.791C140.916 38.4154 140.433 38.2277 139.813 38.2277C139.39 38.2277 139.01 38.3176 138.675 38.4973C138.343 38.6771 138.081 38.9408 137.89 39.2884C137.702 39.6319 137.608 40.0474 137.608 40.5348ZM153.112 46.2037C152.529 46.2037 152.002 46.0959 151.53 45.8801C151.059 45.6604 150.685 45.3428 150.41 44.9273C150.138 44.5119 150.002 44.0025 150.002 43.3992C150.002 42.8799 150.102 42.4524 150.302 42.1168C150.501 41.7812 150.771 41.5156 151.111 41.3198C151.45 41.1241 151.83 40.9763 152.249 40.8764C152.669 40.7765 153.096 40.7006 153.532 40.6487C154.083 40.5847 154.53 40.5328 154.874 40.4929C155.218 40.4489 155.467 40.379 155.623 40.2831C155.779 40.1872 155.857 40.0314 155.857 39.8157V39.7737C155.857 39.2504 155.709 38.8449 155.413 38.5573C155.122 38.2696 154.686 38.1258 154.107 38.1258C153.504 38.1258 153.028 38.2596 152.681 38.5273C152.337 38.791 152.1 39.0846 151.968 39.4082L150.284 39.0247C150.484 38.4654 150.775 38.0139 151.159 37.6704C151.546 37.3228 151.992 37.0711 152.495 36.9153C152.998 36.7555 153.528 36.6756 154.083 36.6756C154.451 36.6756 154.84 36.7195 155.252 36.8074C155.667 36.8913 156.055 37.0471 156.414 37.2749C156.778 37.5026 157.075 37.8282 157.307 38.2516C157.539 38.6711 157.655 39.2164 157.655 39.8876V46H155.905V44.7416H155.833C155.717 44.9733 155.543 45.201 155.312 45.4247C155.08 45.6484 154.782 45.8342 154.419 45.982C154.055 46.1298 153.62 46.2037 153.112 46.2037ZM153.502 44.7655C153.997 44.7655 154.421 44.6677 154.772 44.4719C155.128 44.2761 155.397 44.0205 155.581 43.7049C155.769 43.3853 155.863 43.0437 155.863 42.6801V41.4936C155.799 41.5575 155.675 41.6175 155.491 41.6734C155.312 41.7253 155.106 41.7713 154.874 41.8112C154.642 41.8472 154.417 41.8811 154.197 41.9131C153.977 41.9411 153.793 41.965 153.646 41.985C153.298 42.0289 152.98 42.1028 152.693 42.2067C152.409 42.3106 152.181 42.4604 152.01 42.6562C151.842 42.8479 151.758 43.1036 151.758 43.4232C151.758 43.8667 151.922 44.2022 152.249 44.43C152.577 44.6537 152.994 44.7655 153.502 44.7655ZM161.833 40.5348V46H160.041V36.7955H161.761V38.2936H161.875C162.087 37.8062 162.418 37.4147 162.87 37.1191C163.325 36.8234 163.898 36.6756 164.589 36.6756C165.217 36.6756 165.766 36.8074 166.237 37.0711C166.709 37.3308 167.074 37.7183 167.334 38.2337C167.594 38.749 167.724 39.3862 167.724 40.1453V46H165.932V40.361C165.932 39.6938 165.758 39.1725 165.41 38.797C165.063 38.4174 164.585 38.2277 163.978 38.2277C163.563 38.2277 163.193 38.3176 162.87 38.4973C162.55 38.6771 162.296 38.9408 162.109 39.2884C161.925 39.6319 161.833 40.0474 161.833 40.5348ZM178.56 46.1858C177.653 46.1858 176.872 45.992 176.216 45.6045C175.565 45.213 175.062 44.6637 174.706 43.9565C174.355 43.2454 174.179 42.4125 174.179 41.4577C174.179 40.5148 174.355 39.6839 174.706 38.9648C175.062 38.2456 175.557 37.6843 176.193 37.2808C176.832 36.8774 177.579 36.6756 178.434 36.6756C178.953 36.6756 179.456 36.7615 179.944 36.9333C180.431 37.1051 180.869 37.3747 181.256 37.7423C181.644 38.1098 181.949 38.5872 182.173 39.1745C182.397 39.7578 182.509 40.4669 182.509 41.3018V41.9371H175.192V40.5947H180.753C180.753 40.1233 180.657 39.7058 180.465 39.3423C180.273 38.9747 180.004 38.6851 179.656 38.4734C179.313 38.2616 178.909 38.1558 178.446 38.1558C177.942 38.1558 177.503 38.2796 177.127 38.5273C176.756 38.771 176.468 39.0906 176.264 39.4861C176.065 39.8776 175.965 40.3031 175.965 40.7625V41.8112C175.965 42.4264 176.073 42.9498 176.288 43.3813C176.508 43.8127 176.814 44.1423 177.205 44.37C177.597 44.5937 178.054 44.7056 178.578 44.7056C178.917 44.7056 179.227 44.6577 179.506 44.5618C179.786 44.4619 180.028 44.3141 180.231 44.1183C180.435 43.9226 180.591 43.6809 180.699 43.3932L182.395 43.6989C182.259 44.1982 182.015 44.6357 181.664 45.0112C181.316 45.3828 180.879 45.6724 180.351 45.8801C179.828 46.0839 179.231 46.1858 178.56 46.1858ZM185.697 36.7955L187.728 40.379L189.778 36.7955H191.737L188.867 41.3977L191.761 46H189.802L187.728 42.5603L185.661 46H183.695L186.56 41.3977L183.731 36.7955H185.697ZM193.577 49.4517V36.7955H195.327V38.2876H195.477C195.58 38.0958 195.73 37.8741 195.926 37.6224C196.122 37.3707 196.393 37.151 196.741 36.9632C197.089 36.7715 197.548 36.6756 198.119 36.6756C198.862 36.6756 199.525 36.8634 200.109 37.2389C200.692 37.6144 201.149 38.1558 201.481 38.8629C201.817 39.57 201.984 40.4209 201.984 41.4157C201.984 42.4105 201.819 43.2634 201.487 43.9745C201.155 44.6816 200.7 45.227 200.121 45.6105C199.541 45.99 198.88 46.1798 198.137 46.1798C197.578 46.1798 197.12 46.0859 196.765 45.8981C196.413 45.7104 196.138 45.4906 195.938 45.2389C195.738 44.9873 195.584 44.7635 195.477 44.5678H195.369V49.4517H193.577ZM195.333 41.3977C195.333 42.0449 195.427 42.6122 195.614 43.0996C195.802 43.587 196.074 43.9685 196.429 44.2442C196.785 44.5158 197.22 44.6517 197.736 44.6517C198.271 44.6517 198.718 44.5099 199.078 44.2262C199.438 43.9386 199.709 43.549 199.893 43.0577C200.081 42.5663 200.175 42.013 200.175 41.3977C200.175 40.7905 200.083 40.2452 199.899 39.7618C199.719 39.2784 199.448 38.8968 199.084 38.6172C198.724 38.3375 198.275 38.1977 197.736 38.1977C197.216 38.1977 196.777 38.3315 196.417 38.5992C196.062 38.8669 195.792 39.2404 195.608 39.7198C195.425 40.1992 195.333 40.7585 195.333 41.3977ZM207.959 46.1858C207.052 46.1858 206.271 45.992 205.616 45.6045C204.965 45.213 204.461 44.6637 204.106 43.9565C203.754 43.2454 203.578 42.4125 203.578 41.4577C203.578 40.5148 203.754 39.6839 204.106 38.9648C204.461 38.2456 204.957 37.6843 205.592 37.2808C206.231 36.8774 206.978 36.6756 207.833 36.6756C208.353 36.6756 208.856 36.7615 209.343 36.9333C209.831 37.1051 210.268 37.3747 210.656 37.7423C211.043 38.1098 211.349 38.5872 211.572 39.1745C211.796 39.7578 211.908 40.4669 211.908 41.3018V41.9371H204.591V40.5947H210.152C210.152 40.1233 210.056 39.7058 209.865 39.3423C209.673 38.9747 209.403 38.6851 209.056 38.4734C208.712 38.2616 208.309 38.1558 207.845 38.1558C207.342 38.1558 206.902 38.2796 206.527 38.5273C206.155 38.771 205.868 39.0906 205.664 39.4861C205.464 39.8776 205.364 40.3031 205.364 40.7625V41.8112C205.364 42.4264 205.472 42.9498 205.688 43.3813C205.908 43.8127 206.213 44.1423 206.605 44.37C206.996 44.5937 207.454 44.7056 207.977 44.7056C208.317 44.7056 208.626 44.6577 208.906 44.5618C209.185 44.4619 209.427 44.3141 209.631 44.1183C209.835 43.9226 209.99 43.6809 210.098 43.3932L211.794 43.6989C211.658 44.1982 211.415 44.6357 211.063 45.0112C210.716 45.3828 210.278 45.6724 209.751 45.8801C209.227 46.0839 208.63 46.1858 207.959 46.1858ZM213.896 46V36.7955H215.628V38.2576H215.724C215.892 37.7623 216.187 37.3727 216.611 37.0891C217.038 36.8014 217.522 36.6576 218.061 36.6576C218.173 36.6576 218.305 36.6616 218.456 36.6696C218.612 36.6776 218.734 36.6876 218.822 36.6996V38.4134C218.75 38.3935 218.622 38.3715 218.438 38.3475C218.255 38.3196 218.071 38.3056 217.887 38.3056C217.464 38.3056 217.086 38.3955 216.755 38.5752C216.427 38.751 216.167 38.9967 215.976 39.3123C215.784 39.6239 215.688 39.9795 215.688 40.379V46H213.896ZM225.213 36.7955V38.2337H220.185V36.7955H225.213ZM221.534 34.5902H223.325V43.2974C223.325 43.6449 223.377 43.9066 223.481 44.0824C223.585 44.2542 223.719 44.372 223.883 44.4359C224.05 44.4959 224.232 44.5258 224.428 44.5258C224.572 44.5258 224.698 44.5158 224.806 44.4959C224.913 44.4759 224.997 44.4599 225.057 44.4479L225.381 45.9281C225.277 45.968 225.129 46.008 224.937 46.0479C224.746 46.0919 224.506 46.1159 224.218 46.1199C223.747 46.1278 223.307 46.0439 222.9 45.8682C222.492 45.6924 222.163 45.4207 221.911 45.0532C221.659 44.6856 221.534 44.2242 221.534 43.6689V34.5902Z" fill="#273F2B"/>
<defs>
<clipPath id="clip0_238_2117">
<rect width="32" height="32" fill="white" transform="translate(32 24)"/>
</clipPath>
<clipPath id="clip1_238_2117">
<rect width="32" height="32" fill="white" transform="translate(32 24)"/>
</clipPath>
</defs>
</svg>
