<svg width="157" height="41" viewBox="0 0 157 41" fill="none" xmlns="http://www.w3.org/2000/svg">
<g clip-path="url(#clip0_238_1832)">
<g clip-path="url(#clip1_238_1832)">
<path fill-rule="evenodd" clip-rule="evenodd" d="M31.3609 14.9612C33.1748 14.9612 34.6438 13.4902 34.6438 11.6782C34.6438 9.86622 33.1729 8.39524 31.3609 8.39524C29.5489 8.39524 28.0778 9.86622 28.0778 11.6782C28.0778 13.4902 29.5489 14.9612 31.3609 14.9612ZM42.8678 11.6782C42.8678 18.0326 37.7151 23.1851 31.3609 23.1851C25.0065 23.1851 19.854 18.0326 19.854 11.6782C19.854 5.32388 25.0065 0.171387 31.3609 0.171387C37.7151 0.171387 42.8678 5.32388 42.8678 11.6782ZM95.1178 11.6782C95.1178 13.4923 93.6469 14.9612 91.8349 14.9612C90.0229 14.9612 88.552 13.4902 88.552 11.6782C88.552 9.86622 90.0229 8.39524 91.8349 8.39524C93.6469 8.39524 95.1178 9.86622 95.1178 11.6782ZM91.8349 23.1851C98.1894 23.1851 103.342 18.0326 103.342 11.6782C103.342 5.32388 98.1894 0.171387 91.8349 0.171387C85.4806 0.171387 80.328 5.32388 80.328 11.6782C80.328 18.0326 85.4786 23.1851 91.8349 23.1851ZM148.332 11.6782C148.332 13.4923 146.861 14.9612 145.049 14.9612C143.237 14.9612 141.766 13.4902 141.766 11.6782C141.766 9.86622 143.237 8.39524 145.049 8.39524C146.861 8.39524 148.332 9.86622 148.332 11.6782ZM145.049 23.1851C151.403 23.1851 156.556 18.0326 156.556 11.6782C156.556 5.32388 151.403 0.171387 145.047 0.171387C138.69 0.171387 133.54 5.32388 133.54 11.6782C133.54 18.0326 138.692 23.1851 145.047 23.1851H145.049ZM75.5083 3.24275C73.7067 1.27461 71.2249 0.7117 68.9445 0.7117H64.6856V4.6644C64.4185 4.17342 64.0859 3.69472 63.6707 3.24275C61.8691 1.27461 59.3873 0.7117 57.1069 0.7117H53.6533V0.707593H45.0741V22.5872H53.6533V9.29099H57.1069C57.1193 9.29099 57.1317 9.29099 57.1418 9.29099V22.5872H65.721V9.29099H68.9568H68.9774V22.5872H77.5566V9.23759C77.5566 7.49541 77.2361 5.13488 75.5043 3.24275H75.5083ZM107.383 3.37012C109.184 1.40199 111.666 0.839075 113.947 0.839075H118.203V9.41836H113.926H113.91V22.7146H105.33V9.36496C105.33 7.62278 105.651 5.26225 107.381 3.37012H107.383ZM128.067 0.839075C125.786 0.839075 123.305 1.39993 121.503 3.37012C119.771 5.26225 119.451 7.62278 119.451 9.36496V22.7146H128.03V9.42042C128.042 9.42042 128.055 9.42042 128.065 9.42042H132.324V0.839075H128.065H128.067ZM13.6229 9.34645V22.4927H5.04363V9.34645H0V0.767169H5.04157V0.763063H13.6208V0.767169H18.6645V9.34645H13.6208H13.6229Z" fill="white"/>
<path d="M84.4929 36.7999C81.7956 36.7999 80.1709 35.1752 80.1709 32.6672C80.1709 30.1434 81.8271 28.5029 84.3351 28.5029C86.7643 28.5029 88.4048 30.0172 88.4363 32.399C88.4363 32.6356 88.4205 32.9038 88.3732 33.1562H82.4896V33.2666C82.5369 34.4181 83.2783 35.1121 84.3982 35.1121C85.2973 35.1121 85.9283 34.7178 86.1176 33.9606H88.3101C88.0577 35.538 86.6539 36.7999 84.4929 36.7999ZM82.5369 31.705H86.1964C86.0387 30.7113 85.3604 30.1592 84.3509 30.1592C83.3887 30.1592 82.6631 30.7428 82.5369 31.705ZM88.4155 36.7053L91.4285 32.5726L88.5577 28.5976H91.0973L92.7693 30.9952L94.4886 28.5976H96.8862L94.0312 32.5726L97.0439 36.7053H94.5044L92.6431 34.1657L90.7976 36.7053H88.4155ZM108.591 36.7053H101.84V25.6636H104.206V34.6705H108.591V36.7053ZM113.437 36.7999C110.74 36.7999 109.115 35.1752 109.115 32.6672C109.115 30.1434 110.771 28.5029 113.279 28.5029C115.708 28.5029 117.349 30.0172 117.38 32.399C117.38 32.6356 117.365 32.9038 117.317 33.1562H111.434V33.2666C111.481 34.4181 112.222 35.1121 113.342 35.1121C114.241 35.1121 114.872 34.7178 115.062 33.9606H117.254C117.002 35.538 115.598 36.7999 113.437 36.7999ZM111.481 31.705H115.141C114.983 30.7113 114.305 30.1592 113.295 30.1592C112.333 30.1592 111.607 30.7428 111.481 31.705ZM122.602 36.7999C119.905 36.7999 118.28 35.1752 118.28 32.6672C118.28 30.1434 119.937 28.5029 122.445 28.5029C124.874 28.5029 126.514 30.0172 126.546 32.399C126.546 32.6356 126.53 32.9038 126.483 33.1562H120.599V33.2666C120.646 34.4181 121.388 35.1121 122.508 35.1121C123.407 35.1121 124.038 34.7178 124.227 33.9606H126.42C126.167 35.538 124.763 36.7999 122.602 36.7999ZM120.646 31.705H124.306C124.148 30.7113 123.47 30.1592 122.46 30.1592C121.498 30.1592 120.773 30.7428 120.646 31.705ZM129.346 36.7053L126.696 28.5976H129.046L130.671 34.3077L132.201 28.5976H134.204L135.687 34.3234L137.343 28.5976H139.614L136.949 36.7053H134.582L133.163 31.8154L131.712 36.7053H129.346ZM147.752 34.8282H148.004V36.7053H146.868C145.717 36.7053 145.354 36.1532 145.37 35.3803C144.802 36.2794 143.982 36.7999 142.72 36.7999C140.969 36.7999 139.707 35.9639 139.707 34.4181C139.707 32.6987 141.001 31.7208 143.43 31.7208H145.039V31.3264C145.039 30.6008 144.518 30.1276 143.588 30.1276C142.72 30.1276 142.136 30.522 142.042 31.1214H139.896C140.054 29.544 141.505 28.5029 143.651 28.5029C145.922 28.5029 147.231 29.5125 147.231 31.4526V34.3234C147.231 34.7493 147.405 34.8282 147.752 34.8282ZM145.039 33.3612V33.2035H143.414C142.483 33.2035 141.947 33.5821 141.947 34.2603C141.947 34.8282 142.405 35.191 143.146 35.191C144.313 35.191 145.023 34.4654 145.039 33.3612ZM150.829 36.7526L147.706 28.5976H150.072L152.044 34.3708L153.968 28.5976H156.35L152.754 37.8567C152.249 39.1975 151.839 39.86 150.577 39.86H148.416V37.9829H149.646C150.214 37.9829 150.403 37.841 150.624 37.2889L150.829 36.7526Z" fill="white"/>
</g>
</g>
<defs>
<clipPath id="clip0_238_1832">
<rect width="156.61" height="40" fill="white" transform="translate(0 0.169922)"/>
</clipPath>
<clipPath id="clip1_238_1832">
<rect width="156.61" height="39.9975" fill="white" transform="translate(0 0.171387)"/>
</clipPath>
</defs>
</svg>
