<svg width="131" height="56" viewBox="0 0 131 56" fill="none" xmlns="http://www.w3.org/2000/svg">
<rect width="130.22" height="56" rx="28" fill="#78EB54"/>
<path d="M25.2207 34V22.9091H26.8941V32.5595H31.9197V34H25.2207ZM37.2837 34.1679C36.4642 34.1679 35.7583 33.9928 35.1663 33.6426C34.5778 33.2888 34.1229 32.7923 33.8016 32.1533C33.4838 31.5107 33.325 30.7579 33.325 29.8951C33.325 29.043 33.4838 28.2921 33.8016 27.6422C34.1229 26.9924 34.5706 26.4851 35.1446 26.1205C35.7222 25.7558 36.3974 25.5735 37.17 25.5735C37.6393 25.5735 38.0942 25.6511 38.5347 25.8064C38.9751 25.9616 39.3705 26.2053 39.7207 26.5375C40.0709 26.8696 40.3471 27.301 40.5492 27.8318C40.7514 28.3589 40.8525 28.9997 40.8525 29.7543V30.3283H34.2402V29.1152H39.2658C39.2658 28.6892 39.1791 28.3119 39.0058 27.9834C38.8325 27.6512 38.5888 27.3895 38.2747 27.1982C37.9643 27.0068 37.5996 26.9111 37.1808 26.9111C36.7259 26.9111 36.3288 27.0231 35.9894 27.2469C35.6536 27.4671 35.3937 27.7559 35.2096 28.1134C35.0291 28.4672 34.9388 28.8517 34.9388 29.2669V30.2146C34.9388 30.7706 35.0363 31.2435 35.2312 31.6334C35.4298 32.0233 35.706 32.3212 36.0598 32.527C36.4136 32.7292 36.827 32.8303 37.3 32.8303C37.6068 32.8303 37.8866 32.7869 38.1394 32.7003C38.3921 32.61 38.6105 32.4764 38.7946 32.2995C38.9788 32.1226 39.1196 31.9042 39.217 31.6443L40.7496 31.9205C40.6269 32.3717 40.4066 32.7671 40.0889 33.1064C39.7748 33.4422 39.3795 33.704 38.9029 33.8917C38.43 34.0758 37.8902 34.1679 37.2837 34.1679ZM45.0698 34.1841C44.5427 34.1841 44.0661 34.0866 43.6401 33.8917C43.2141 33.6931 42.8765 33.4061 42.6274 33.0306C42.3819 32.6552 42.2592 32.1948 42.2592 31.6497C42.2592 31.1803 42.3494 30.794 42.53 30.4908C42.7105 30.1875 42.9542 29.9474 43.261 29.7705C43.5679 29.5936 43.9109 29.46 44.29 29.3698C44.6691 29.2795 45.0554 29.2109 45.4489 29.164C45.9471 29.1062 46.3515 29.0593 46.662 29.0232C46.9725 28.9835 47.1981 28.9203 47.3389 28.8336C47.4797 28.747 47.5501 28.6062 47.5501 28.4112V28.3733C47.5501 27.9004 47.4165 27.5339 47.1494 27.274C46.8858 27.014 46.4923 26.8841 45.9688 26.8841C45.4236 26.8841 44.994 27.005 44.6799 27.2469C44.3694 27.4852 44.1546 27.7505 44.0355 28.043L42.5137 27.6964C42.6942 27.1909 42.9578 26.783 43.3044 26.4725C43.6546 26.1584 44.0571 25.9309 44.512 25.7901C44.9669 25.6457 45.4453 25.5735 45.9471 25.5735C46.2793 25.5735 46.6313 25.6132 47.0031 25.6926C47.3786 25.7685 47.7288 25.9093 48.0537 26.1151C48.3823 26.3208 48.6513 26.6151 48.8607 26.9978C49.0701 27.3769 49.1748 27.8697 49.1748 28.4762V34H47.5934V32.8627H47.5284C47.4237 33.0721 47.2667 33.2779 47.0573 33.4801C46.8479 33.6823 46.5789 33.8502 46.2504 33.9838C45.9219 34.1173 45.5283 34.1841 45.0698 34.1841ZM45.4218 32.8844C45.8695 32.8844 46.2522 32.796 46.5699 32.6191C46.8912 32.4421 47.1349 32.2111 47.301 31.9259C47.4707 31.637 47.5555 31.3284 47.5555 30.9998V29.9276C47.4978 29.9853 47.3858 30.0395 47.2198 30.09C47.0573 30.137 46.8714 30.1785 46.662 30.2146C46.4526 30.2471 46.2486 30.2778 46.05 30.3066C45.8515 30.3319 45.6854 30.3536 45.5518 30.3716C45.2377 30.4113 44.9507 30.4781 44.6907 30.572C44.4344 30.6659 44.2286 30.8013 44.0734 30.9782C43.9217 31.1515 43.8459 31.3825 43.8459 31.6713C43.8459 32.0721 43.9939 32.3754 44.29 32.5811C44.586 32.7833 44.9633 32.8844 45.4218 32.8844ZM51.3315 34V25.6818H52.8965V27.0032H52.9832C53.1348 26.5555 53.402 26.2035 53.7847 25.9472C54.171 25.6872 54.6078 25.5573 55.0952 25.5573C55.1963 25.5573 55.3155 25.5609 55.4527 25.5681C55.5935 25.5753 55.7036 25.5843 55.783 25.5952V27.144C55.718 27.1259 55.6025 27.1061 55.4364 27.0844C55.2703 27.0592 55.1043 27.0465 54.9382 27.0465C54.5555 27.0465 54.2143 27.1278 53.9147 27.2902C53.6186 27.4491 53.3839 27.6711 53.2106 27.9563C53.0373 28.2379 52.9507 28.5592 52.9507 28.9203V34H51.3315ZM58.8035 29.0611V34H57.1843V25.6818H58.7385V27.0357H58.8414C59.0327 26.5952 59.3324 26.2414 59.7404 25.9743C60.1519 25.7071 60.67 25.5735 61.2946 25.5735C61.8614 25.5735 62.3578 25.6926 62.7839 25.9309C63.2099 26.1656 63.5402 26.5158 63.7749 26.9815C64.0096 27.4473 64.1269 28.0231 64.1269 28.7091V34H62.5077V28.904C62.5077 28.3011 62.3506 27.83 62.0365 27.4906C61.7224 27.1476 61.291 26.9761 60.7422 26.9761C60.3668 26.9761 60.0328 27.0574 59.7404 27.2198C59.4515 27.3823 59.2223 27.6206 59.0526 27.9347C58.8865 28.2451 58.8035 28.6206 58.8035 29.0611ZM70.3344 34V25.6818H71.8886V27.0357H71.9915C72.1648 26.5772 72.4482 26.2198 72.8418 25.9634C73.2353 25.7035 73.7064 25.5735 74.2552 25.5735C74.8112 25.5735 75.2769 25.7035 75.6524 25.9634C76.0315 26.2234 76.3113 26.5808 76.4918 27.0357H76.5785C76.777 26.5916 77.0929 26.2378 77.5262 25.9743C77.9594 25.7071 78.4757 25.5735 79.075 25.5735C79.8295 25.5735 80.4451 25.81 80.9217 26.2829C81.4018 26.7559 81.6419 27.4689 81.6419 28.4221V34H80.0227V28.5737C80.0227 28.0105 79.8693 27.6025 79.5624 27.3498C79.2555 27.0971 78.8891 26.9707 78.463 26.9707C77.9359 26.9707 77.5262 27.1332 77.2337 27.4581C76.9413 27.7794 76.7951 28.1928 76.7951 28.6982V34H75.1813V28.4708C75.1813 28.0195 75.0405 27.6567 74.7588 27.3823C74.4772 27.1079 74.1108 26.9707 73.6595 26.9707C73.3526 26.9707 73.0692 27.0519 72.8093 27.2144C72.5529 27.3733 72.3453 27.5953 72.1865 27.8805C72.0313 28.1657 71.9536 28.4961 71.9536 28.8715V34H70.3344ZM87.316 34.1679C86.5362 34.1679 85.8556 33.9892 85.2744 33.6317C84.6931 33.2743 84.2418 32.7743 83.9205 32.1317C83.5992 31.489 83.4385 30.7381 83.4385 29.8788C83.4385 29.016 83.5992 28.2614 83.9205 27.6151C84.2418 26.9689 84.6931 26.4671 85.2744 26.1096C85.8556 25.7522 86.5362 25.5735 87.316 25.5735C88.0958 25.5735 88.7764 25.7522 89.3576 26.1096C89.9389 26.4671 90.3902 26.9689 90.7115 27.6151C91.0328 28.2614 91.1935 29.016 91.1935 29.8788C91.1935 30.7381 91.0328 31.489 90.7115 32.1317C90.3902 32.7743 89.9389 33.2743 89.3576 33.6317C88.7764 33.9892 88.0958 34.1679 87.316 34.1679ZM87.3214 32.8086C87.8269 32.8086 88.2457 32.675 88.5778 32.4078C88.91 32.1407 89.1555 31.7851 89.3143 31.341C89.4768 30.8969 89.558 30.4077 89.558 29.8734C89.558 29.3427 89.4768 28.8553 89.3143 28.4112C89.1555 27.9635 88.91 27.6043 88.5778 27.3335C88.2457 27.0628 87.8269 26.9274 87.3214 26.9274C86.8124 26.9274 86.39 27.0628 86.0542 27.3335C85.722 27.6043 85.4747 27.9635 85.3123 28.4112C85.1534 28.8553 85.074 29.3427 85.074 29.8734C85.074 30.4077 85.1534 30.8969 85.3123 31.341C85.4747 31.7851 85.722 32.1407 86.0542 32.4078C86.39 32.675 86.8124 32.8086 87.3214 32.8086ZM93.0009 34V25.6818H94.566V27.0032H94.6526C94.8043 26.5555 95.0714 26.2035 95.4541 25.9472C95.8404 25.6872 96.2773 25.5573 96.7647 25.5573C96.8658 25.5573 96.9849 25.5609 97.1221 25.5681C97.2629 25.5753 97.373 25.5843 97.4524 25.5952V27.144C97.3874 27.1259 97.2719 27.1061 97.1058 27.0844C96.9398 27.0592 96.7737 27.0465 96.6076 27.0465C96.2249 27.0465 95.8837 27.1278 95.5841 27.2902C95.288 27.4491 95.0534 27.6711 94.8801 27.9563C94.7068 28.2379 94.6201 28.5592 94.6201 28.9203V34H93.0009ZM102.141 34.1679C101.321 34.1679 100.616 33.9928 100.023 33.6426C99.4349 33.2888 98.98 32.7923 98.6587 32.1533C98.341 31.5107 98.1822 30.7579 98.1822 29.8951C98.1822 29.043 98.341 28.2921 98.6587 27.6422C98.98 26.9924 99.4277 26.4851 100.002 26.1205C100.579 25.7558 101.255 25.5735 102.027 25.5735C102.497 25.5735 102.951 25.6511 103.392 25.8064C103.832 25.9616 104.228 26.2053 104.578 26.5375C104.928 26.8696 105.204 27.301 105.406 27.8318C105.609 28.3589 105.71 28.9997 105.71 29.7543V30.3283H99.0974V29.1152H104.123C104.123 28.6892 104.036 28.3119 103.863 27.9834C103.69 27.6512 103.446 27.3895 103.132 27.1982C102.821 27.0068 102.457 26.9111 102.038 26.9111C101.583 26.9111 101.186 27.0231 100.847 27.2469C100.511 27.4671 100.251 27.7559 100.067 28.1134C99.8862 28.4672 99.796 28.8517 99.796 29.2669V30.2146C99.796 30.7706 99.8935 31.2435 100.088 31.6334C100.287 32.0233 100.563 32.3212 100.917 32.527C101.271 32.7292 101.684 32.8303 102.157 32.8303C102.464 32.8303 102.744 32.7869 102.997 32.7003C103.249 32.61 103.468 32.4764 103.652 32.2995C103.836 32.1226 103.977 31.9042 104.074 31.6443L105.607 31.9205C105.484 32.3717 105.264 32.7671 104.946 33.1064C104.632 33.4422 104.237 33.704 103.76 33.8917C103.287 34.0758 102.747 34.1679 102.141 34.1679Z" fill="#273F2B"/>
</svg>
