<svg width="378" height="89" viewBox="0 0 378 89" fill="none" xmlns="http://www.w3.org/2000/svg">
<rect x="0.980469" y="0.169922" width="376.13" height="88" rx="8" fill="#CAF1B1"/>
<rect x="24.9805" y="20.1699" width="48" height="48" rx="24" fill="white"/>
<g clip-path="url(#clip0_238_2094)">
<g clip-path="url(#clip1_238_2094)">
<path d="M50.1443 50.0949V52.5099H55.9625V54.8523H41.9988V52.5099H47.8171V50.0949C43.225 49.5185 39.6716 45.5756 39.6716 40.7975V33.77H58.2898V40.7975C58.2898 45.5756 54.7363 49.5185 50.1443 50.0949ZM41.9988 36.1125V40.7975C41.9988 44.6786 45.1247 47.8249 48.9807 47.8249C52.8366 47.8249 55.9625 44.6786 55.9625 40.7975V36.1125H41.9988ZM36.1807 36.1125H38.5079V40.7975H36.1807V36.1125ZM59.4534 36.1125H61.7807V40.7975H59.4534V36.1125Z" fill="#273F2B"/>
</g>
</g>
<path d="M90.4146 40.1699V23.6699H101.339V26.5461H93.9031V30.4778H100.614V33.354H93.9031V40.1699H90.4146ZM106.995 40.4036C106.206 40.4036 105.502 40.2666 104.884 39.9927C104.267 39.7134 103.778 39.3025 103.418 38.76C103.063 38.2122 102.886 37.53 102.886 36.7136C102.886 36.0261 103.012 35.4487 103.265 34.9814C103.517 34.5142 103.861 34.1382 104.296 33.8535C104.731 33.5688 105.225 33.354 105.779 33.209C106.337 33.064 106.923 32.9619 107.535 32.9028C108.255 32.8276 108.835 32.7578 109.275 32.6934C109.716 32.6235 110.035 32.5215 110.234 32.3872C110.433 32.2529 110.532 32.0542 110.532 31.791V31.7427C110.532 31.2324 110.371 30.8376 110.049 30.5583C109.732 30.2791 109.281 30.1394 108.695 30.1394C108.077 30.1394 107.586 30.2764 107.221 30.5503C106.855 30.8188 106.614 31.1572 106.496 31.5654L103.321 31.3076C103.482 30.5557 103.799 29.9058 104.272 29.3579C104.745 28.8047 105.354 28.3804 106.101 28.085C106.853 27.7842 107.723 27.6338 108.711 27.6338C109.399 27.6338 110.057 27.7144 110.685 27.8755C111.319 28.0366 111.88 28.2864 112.369 28.6248C112.863 28.9631 113.252 29.3982 113.537 29.9299C113.822 30.4563 113.964 31.0874 113.964 31.8232V40.1699H110.709V38.4539H110.613C110.414 38.8406 110.148 39.1816 109.815 39.4771C109.482 39.7671 109.082 39.9954 108.615 40.1619C108.147 40.323 107.607 40.4036 106.995 40.4036ZM107.978 38.0349C108.483 38.0349 108.929 37.9355 109.315 37.7368C109.702 37.5327 110.006 37.2588 110.226 36.915C110.446 36.5713 110.556 36.1819 110.556 35.7468V34.4336C110.449 34.5034 110.301 34.5679 110.113 34.627C109.93 34.6807 109.724 34.7317 109.493 34.78C109.262 34.823 109.031 34.8633 108.8 34.9009C108.569 34.9331 108.359 34.9626 108.171 34.9895C107.769 35.0486 107.417 35.1426 107.116 35.2715C106.815 35.4004 106.582 35.575 106.415 35.7952C106.249 36.01 106.165 36.2786 106.165 36.6008C106.165 37.0681 106.334 37.4253 106.673 37.6724C107.017 37.9141 107.452 38.0349 107.978 38.0349ZM126.923 31.3237L123.781 31.5171C123.727 31.2485 123.612 31.0068 123.435 30.792C123.257 30.5718 123.024 30.3972 122.734 30.2683C122.449 30.134 122.108 30.0669 121.711 30.0669C121.179 30.0669 120.73 30.1797 120.365 30.4053C120 30.6255 119.817 30.9209 119.817 31.2915C119.817 31.5869 119.935 31.8367 120.172 32.0408C120.408 32.2449 120.814 32.4087 121.388 32.5322L123.628 32.9834C124.831 33.2305 125.728 33.6279 126.319 34.1758C126.91 34.7236 127.205 35.4434 127.205 36.335C127.205 37.146 126.966 37.8577 126.488 38.47C126.016 39.0823 125.366 39.5603 124.538 39.9041C123.717 40.2424 122.769 40.4116 121.694 40.4116C120.056 40.4116 118.751 40.0706 117.779 39.3884C116.812 38.7009 116.245 37.7664 116.079 36.5847L119.455 36.4075C119.557 36.907 119.804 37.2883 120.196 37.5515C120.588 37.8093 121.09 37.9382 121.703 37.9382C122.304 37.9382 122.787 37.8228 123.153 37.5918C123.523 37.3555 123.711 37.052 123.717 36.6814C123.711 36.3699 123.58 36.1147 123.322 35.916C123.064 35.7119 122.667 35.5562 122.13 35.4487L119.986 35.0217C118.778 34.78 117.878 34.3611 117.287 33.7649C116.702 33.1687 116.409 32.4087 116.409 31.4849C116.409 30.6899 116.624 30.0051 117.054 29.4304C117.489 28.8557 118.099 28.4126 118.883 28.1011C119.672 27.7896 120.596 27.6338 121.654 27.6338C123.217 27.6338 124.447 27.9641 125.344 28.6248C126.246 29.2854 126.773 30.1851 126.923 31.3237ZM135.949 27.7949V30.373H128.496V27.7949H135.949ZM130.188 24.8301H133.62V36.3672C133.62 36.6841 133.669 36.9312 133.765 37.1084C133.862 37.2803 133.996 37.4011 134.168 37.4709C134.345 37.5408 134.549 37.5757 134.78 37.5757C134.942 37.5757 135.103 37.5623 135.264 37.5354C135.425 37.5032 135.549 37.479 135.634 37.4629L136.174 40.0168C136.002 40.0706 135.761 40.1323 135.449 40.2021C135.138 40.2773 134.759 40.323 134.313 40.3391C133.486 40.3713 132.761 40.2612 132.138 40.0088C131.52 39.7563 131.039 39.3643 130.696 38.8325C130.352 38.3008 130.183 37.6294 130.188 36.8184V24.8301ZM143.691 40.4116C142.418 40.4116 141.322 40.1538 140.404 39.6382C139.491 39.1172 138.787 38.3813 138.293 37.4307C137.799 36.4746 137.552 35.344 137.552 34.0388C137.552 32.7659 137.799 31.6487 138.293 30.6873C138.787 29.7258 139.483 28.9766 140.38 28.4395C141.282 27.9023 142.34 27.6338 143.554 27.6338C144.371 27.6338 145.131 27.7654 145.834 28.0286C146.543 28.2864 147.161 28.6758 147.687 29.1968C148.219 29.7178 148.633 30.373 148.928 31.1626C149.223 31.9468 149.371 32.8652 149.371 33.918V34.8606H138.922V32.7336H146.14C146.14 32.2395 146.033 31.8018 145.818 31.4204C145.603 31.0391 145.305 30.741 144.924 30.5261C144.548 30.3059 144.11 30.1958 143.611 30.1958C143.09 30.1958 142.628 30.3167 142.225 30.5583C141.827 30.7947 141.516 31.1143 141.29 31.5171C141.065 31.9146 140.949 32.3577 140.944 32.8464V34.8687C140.944 35.481 141.057 36.01 141.282 36.4558C141.513 36.9016 141.838 37.2454 142.257 37.4871C142.676 37.7288 143.173 37.8496 143.747 37.8496C144.129 37.8496 144.478 37.7959 144.795 37.6885C145.112 37.5811 145.383 37.4199 145.609 37.2051C145.834 36.9902 146.006 36.7271 146.124 36.4155L149.299 36.625C149.137 37.3877 148.807 38.0537 148.308 38.623C147.813 39.187 147.174 39.6274 146.39 39.9443C145.611 40.2559 144.712 40.4116 143.691 40.4116ZM161.907 31.3237L158.765 31.5171C158.711 31.2485 158.596 31.0068 158.419 30.792C158.241 30.5718 158.008 30.3972 157.718 30.2683C157.433 30.134 157.092 30.0669 156.695 30.0669C156.163 30.0669 155.714 30.1797 155.349 30.4053C154.984 30.6255 154.801 30.9209 154.801 31.2915C154.801 31.5869 154.919 31.8367 155.156 32.0408C155.392 32.2449 155.798 32.4087 156.372 32.5322L158.612 32.9834C159.815 33.2305 160.712 33.6279 161.303 34.1758C161.894 34.7236 162.189 35.4434 162.189 36.335C162.189 37.146 161.95 37.8577 161.472 38.47C160.999 39.0823 160.35 39.5603 159.522 39.9041C158.701 40.2424 157.753 40.4116 156.678 40.4116C155.04 40.4116 153.735 40.0706 152.763 39.3884C151.796 38.7009 151.229 37.7664 151.063 36.5847L154.439 36.4075C154.541 36.907 154.788 37.2883 155.18 37.5515C155.572 37.8093 156.074 37.9382 156.686 37.9382C157.288 37.9382 157.771 37.8228 158.137 37.5918C158.507 37.3555 158.695 37.052 158.701 36.6814C158.695 36.3699 158.564 36.1147 158.306 35.916C158.048 35.7119 157.651 35.5562 157.113 35.4487L154.97 35.0217C153.762 34.78 152.862 34.3611 152.271 33.7649C151.686 33.1687 151.393 32.4087 151.393 31.4849C151.393 30.6899 151.608 30.0051 152.038 29.4304C152.473 28.8557 153.082 28.4126 153.867 28.1011C154.656 27.7896 155.58 27.6338 156.638 27.6338C158.201 27.6338 159.431 27.9641 160.328 28.6248C161.23 29.2854 161.757 30.1851 161.907 31.3237ZM170.933 27.7949V30.373H163.48V27.7949H170.933ZM165.172 24.8301H168.604V36.3672C168.604 36.6841 168.653 36.9312 168.749 37.1084C168.846 37.2803 168.98 37.4011 169.152 37.4709C169.329 37.5408 169.533 37.5757 169.764 37.5757C169.926 37.5757 170.087 37.5623 170.248 37.5354C170.409 37.5032 170.532 37.479 170.618 37.4629L171.158 40.0168C170.986 40.0706 170.745 40.1323 170.433 40.2021C170.122 40.2773 169.743 40.323 169.297 40.3391C168.47 40.3713 167.745 40.2612 167.122 40.0088C166.504 39.7563 166.023 39.3643 165.68 38.8325C165.336 38.3008 165.167 37.6294 165.172 36.8184V24.8301ZM178.419 40.1699V27.7949H181.851V40.1699H178.419ZM180.143 26.1997C179.633 26.1997 179.195 26.0305 178.83 25.6921C178.47 25.3484 178.29 24.9375 178.29 24.4595C178.29 23.9868 178.47 23.5813 178.83 23.2429C179.195 22.8992 179.633 22.7273 180.143 22.7273C180.654 22.7273 181.089 22.8992 181.449 23.2429C181.814 23.5813 181.996 23.9868 181.996 24.4595C181.996 24.9375 181.814 25.3484 181.449 25.6921C181.089 26.0305 180.654 26.1997 180.143 26.1997ZM184.601 40.1699V27.7949H187.872V29.9783H188.017C188.275 29.2532 188.704 28.6812 189.306 28.2622C189.907 27.8433 190.627 27.6338 191.465 27.6338C192.314 27.6338 193.036 27.8459 193.632 28.2703C194.228 28.6892 194.626 29.2585 194.825 29.9783H194.953C195.206 29.2693 195.662 28.7026 196.323 28.2783C196.989 27.8486 197.776 27.6338 198.684 27.6338C199.839 27.6338 200.776 28.0017 201.495 28.7375C202.221 29.468 202.583 30.5046 202.583 31.8474V40.1699H199.159V32.5242C199.159 31.8367 198.976 31.321 198.611 30.9773C198.246 30.6335 197.789 30.4617 197.242 30.4617C196.619 30.4617 196.132 30.6604 195.783 31.0579C195.434 31.45 195.26 31.9683 195.26 32.6128V40.1699H191.932V32.4517C191.932 31.8447 191.758 31.3613 191.409 31.0015C191.065 30.6416 190.611 30.4617 190.047 30.4617C189.666 30.4617 189.322 30.5583 189.016 30.7517C188.715 30.9397 188.476 31.2056 188.299 31.5493C188.121 31.8877 188.033 32.2852 188.033 32.7417V40.1699H184.601ZM205.294 44.8105V27.7949H208.678V29.8735H208.831C208.981 29.5405 209.199 29.2021 209.484 28.8584C209.774 28.5093 210.15 28.2192 210.612 27.9883C211.079 27.752 211.659 27.6338 212.352 27.6338C213.254 27.6338 214.087 27.8701 214.849 28.3428C215.612 28.8101 216.222 29.5164 216.678 30.4617C217.135 31.4016 217.363 32.5806 217.363 33.9985C217.363 35.3789 217.14 36.5444 216.694 37.4951C216.254 38.4404 215.652 39.1575 214.89 39.6462C214.132 40.1296 213.284 40.3713 212.344 40.3713C211.678 40.3713 211.111 40.2612 210.644 40.041C210.182 39.8208 209.803 39.5442 209.508 39.2112C209.212 38.8728 208.987 38.5317 208.831 38.188H208.726V44.8105H205.294ZM208.654 33.9824C208.654 34.7183 208.756 35.3601 208.96 35.908C209.164 36.4558 209.459 36.8828 209.846 37.189C210.233 37.4897 210.703 37.6401 211.256 37.6401C211.815 37.6401 212.287 37.4871 212.674 37.1809C213.061 36.8694 213.354 36.4397 213.552 35.8918C213.756 35.3386 213.858 34.7021 213.858 33.9824C213.858 33.2681 213.759 32.6396 213.56 32.0972C213.362 31.5547 213.069 31.1304 212.682 30.8242C212.295 30.5181 211.82 30.365 211.256 30.365C210.698 30.365 210.225 30.5127 209.838 30.8081C209.457 31.1035 209.164 31.5225 208.96 32.0649C208.756 32.6074 208.654 33.2466 208.654 33.9824ZM223.083 23.6699V40.1699H219.651V23.6699H223.083ZM231.472 40.4116C230.199 40.4116 229.104 40.1538 228.185 39.6382C227.272 39.1172 226.568 38.3813 226.074 37.4307C225.58 36.4746 225.333 35.344 225.333 34.0388C225.333 32.7659 225.58 31.6487 226.074 30.6873C226.568 29.7258 227.264 28.9766 228.161 28.4395C229.063 27.9023 230.121 27.6338 231.335 27.6338C232.152 27.6338 232.912 27.7654 233.615 28.0286C234.324 28.2864 234.942 28.6758 235.468 29.1968C236 29.7178 236.414 30.373 236.709 31.1626C237.004 31.9468 237.152 32.8652 237.152 33.918V34.8606H226.703V32.7336H233.921C233.921 32.2395 233.814 31.8018 233.599 31.4204C233.384 31.0391 233.086 30.741 232.705 30.5261C232.329 30.3059 231.891 30.1958 231.392 30.1958C230.871 30.1958 230.409 30.3167 230.006 30.5583C229.608 30.7947 229.297 31.1143 229.071 31.5171C228.846 31.9146 228.73 32.3577 228.725 32.8464V34.8687C228.725 35.481 228.838 36.01 229.063 36.4558C229.294 36.9016 229.619 37.2454 230.038 37.4871C230.457 37.7288 230.954 37.8496 231.529 37.8496C231.91 37.8496 232.259 37.7959 232.576 37.6885C232.893 37.5811 233.164 37.4199 233.39 37.2051C233.615 36.9902 233.787 36.7271 233.905 36.4155L237.08 36.625C236.919 37.3877 236.588 38.0537 236.089 38.623C235.595 39.187 234.955 39.6274 234.171 39.9443C233.392 40.2559 232.493 40.4116 231.472 40.4116ZM239.392 40.1699V27.7949H242.663V29.9783H242.808C243.066 29.2532 243.495 28.6812 244.097 28.2622C244.699 27.8433 245.418 27.6338 246.256 27.6338C247.105 27.6338 247.827 27.8459 248.423 28.2703C249.02 28.6892 249.417 29.2585 249.616 29.9783H249.745C249.997 29.2693 250.454 28.7026 251.114 28.2783C251.78 27.8486 252.567 27.6338 253.475 27.6338C254.63 27.6338 255.567 28.0017 256.287 28.7375C257.012 29.468 257.374 30.5046 257.374 31.8474V40.1699H253.95V32.5242C253.95 31.8367 253.768 31.321 253.402 30.9773C253.037 30.6335 252.581 30.4617 252.033 30.4617C251.41 30.4617 250.924 30.6604 250.575 31.0579C250.225 31.45 250.051 31.9683 250.051 32.6128V40.1699H246.723V32.4517C246.723 31.8447 246.549 31.3613 246.2 31.0015C245.856 30.6416 245.402 30.4617 244.838 30.4617C244.457 30.4617 244.113 30.5583 243.807 30.7517C243.506 30.9397 243.267 31.2056 243.09 31.5493C242.913 31.8877 242.824 32.2852 242.824 32.7417V40.1699H239.392ZM265.725 40.4116C264.452 40.4116 263.356 40.1538 262.438 39.6382C261.525 39.1172 260.821 38.3813 260.327 37.4307C259.833 36.4746 259.586 35.344 259.586 34.0388C259.586 32.7659 259.833 31.6487 260.327 30.6873C260.821 29.7258 261.517 28.9766 262.414 28.4395C263.316 27.9023 264.374 27.6338 265.588 27.6338C266.404 27.6338 267.164 27.7654 267.868 28.0286C268.577 28.2864 269.195 28.6758 269.721 29.1968C270.253 29.7178 270.666 30.373 270.962 31.1626C271.257 31.9468 271.405 32.8652 271.405 33.918V34.8606H260.956V32.7336H268.174C268.174 32.2395 268.067 31.8018 267.852 31.4204C267.637 31.0391 267.339 30.741 266.958 30.5261C266.582 30.3059 266.144 30.1958 265.644 30.1958C265.123 30.1958 264.662 30.3167 264.259 30.5583C263.861 30.7947 263.55 31.1143 263.324 31.5171C263.099 31.9146 262.983 32.3577 262.978 32.8464V34.8687C262.978 35.481 263.091 36.01 263.316 36.4558C263.547 36.9016 263.872 37.2454 264.291 37.4871C264.71 37.7288 265.207 37.8496 265.781 37.8496C266.163 37.8496 266.512 37.7959 266.829 37.6885C267.146 37.5811 267.417 37.4199 267.643 37.2051C267.868 36.9902 268.04 36.7271 268.158 36.4155L271.332 36.625C271.171 37.3877 270.841 38.0537 270.341 38.623C269.847 39.187 269.208 39.6274 268.424 39.9443C267.645 40.2559 266.746 40.4116 265.725 40.4116ZM277.077 33.0156V40.1699H273.645V27.7949H276.916V29.9783H277.061C277.335 29.2585 277.794 28.6892 278.438 28.2703C279.083 27.8459 279.864 27.6338 280.783 27.6338C281.642 27.6338 282.392 27.8218 283.031 28.1978C283.67 28.5737 284.167 29.1108 284.521 29.8091C284.876 30.502 285.053 31.3291 285.053 32.2905V40.1699H281.621V32.9028C281.626 32.1455 281.433 31.5547 281.041 31.1304C280.649 30.7007 280.109 30.4858 279.421 30.4858C278.959 30.4858 278.551 30.5852 278.197 30.7839C277.848 30.9827 277.574 31.2727 277.375 31.6541C277.182 32.03 277.082 32.4839 277.077 33.0156ZM294.34 27.7949V30.373H286.888V27.7949H294.34ZM288.58 24.8301H292.012V36.3672C292.012 36.6841 292.06 36.9312 292.157 37.1084C292.254 37.2803 292.388 37.4011 292.56 37.4709C292.737 37.5408 292.941 37.5757 293.172 37.5757C293.333 37.5757 293.494 37.5623 293.655 37.5354C293.817 37.5032 293.94 37.479 294.026 37.4629L294.566 40.0168C294.394 40.0706 294.152 40.1323 293.841 40.2021C293.529 40.2773 293.151 40.323 292.705 40.3391C291.878 40.3713 291.152 40.2612 290.529 40.0088C289.912 39.7563 289.431 39.3643 289.087 38.8325C288.744 38.3008 288.574 37.6294 288.58 36.8184V24.8301ZM300.105 40.4036C299.315 40.4036 298.612 40.2666 297.994 39.9927C297.376 39.7134 296.887 39.3025 296.528 38.76C296.173 38.2122 295.996 37.53 295.996 36.7136C295.996 36.0261 296.122 35.4487 296.375 34.9814C296.627 34.5142 296.971 34.1382 297.406 33.8535C297.841 33.5688 298.335 33.354 298.888 33.209C299.447 33.064 300.032 32.9619 300.645 32.9028C301.364 32.8276 301.944 32.7578 302.385 32.6934C302.825 32.6235 303.145 32.5215 303.344 32.3872C303.542 32.2529 303.642 32.0542 303.642 31.791V31.7427C303.642 31.2324 303.48 30.8376 303.158 30.5583C302.841 30.2791 302.39 30.1394 301.805 30.1394C301.187 30.1394 300.696 30.2764 300.33 30.5503C299.965 30.8188 299.723 31.1572 299.605 31.5654L296.431 31.3076C296.592 30.5557 296.909 29.9058 297.382 29.3579C297.854 28.8047 298.464 28.3804 299.21 28.085C299.962 27.7842 300.833 27.6338 301.821 27.6338C302.508 27.6338 303.166 27.7144 303.795 27.8755C304.428 28.0366 304.99 28.2864 305.479 28.6248C305.973 28.9631 306.362 29.3982 306.647 29.9299C306.931 30.4563 307.074 31.0874 307.074 31.8232V40.1699H303.819V38.4539H303.722C303.523 38.8406 303.258 39.1816 302.925 39.4771C302.592 39.7671 302.191 39.9954 301.724 40.1619C301.257 40.323 300.717 40.4036 300.105 40.4036ZM301.088 38.0349C301.593 38.0349 302.038 37.9355 302.425 37.7368C302.812 37.5327 303.115 37.2588 303.335 36.915C303.556 36.5713 303.666 36.1819 303.666 35.7468V34.4336C303.558 34.5034 303.411 34.5679 303.223 34.627C303.04 34.6807 302.833 34.7317 302.602 34.78C302.371 34.823 302.14 34.8633 301.909 34.9009C301.678 34.9331 301.469 34.9626 301.281 34.9895C300.878 35.0486 300.526 35.1426 300.226 35.2715C299.925 35.4004 299.691 35.575 299.525 35.7952C299.358 36.01 299.275 36.2786 299.275 36.6008C299.275 37.0681 299.444 37.4253 299.782 37.6724C300.126 37.9141 300.561 38.0349 301.088 38.0349ZM316.319 27.7949V30.373H308.866V27.7949H316.319ZM310.558 24.8301H313.99V36.3672C313.99 36.6841 314.039 36.9312 314.135 37.1084C314.232 37.2803 314.366 37.4011 314.538 37.4709C314.715 37.5408 314.92 37.5757 315.151 37.5757C315.312 37.5757 315.473 37.5623 315.634 37.5354C315.795 37.5032 315.919 37.479 316.005 37.4629L316.544 40.0168C316.372 40.0706 316.131 40.1323 315.819 40.2021C315.508 40.2773 315.129 40.323 314.683 40.3391C313.856 40.3713 313.131 40.2612 312.508 40.0088C311.89 39.7563 311.41 39.3643 311.066 38.8325C310.722 38.3008 310.553 37.6294 310.558 36.8184V24.8301ZM318.554 40.1699V27.7949H321.987V40.1699H318.554ZM320.279 26.1997C319.768 26.1997 319.331 26.0305 318.965 25.6921C318.605 25.3484 318.426 24.9375 318.426 24.4595C318.426 23.9868 318.605 23.5813 318.965 23.2429C319.331 22.8992 319.768 22.7273 320.279 22.7273C320.789 22.7273 321.224 22.8992 321.584 23.2429C321.949 23.5813 322.132 23.9868 322.132 24.4595C322.132 24.9375 321.949 25.3484 321.584 25.6921C321.224 26.0305 320.789 26.1997 320.279 26.1997ZM330.327 40.4116C329.076 40.4116 327.993 40.1458 327.08 39.614C326.173 39.0769 325.472 38.3303 324.978 37.3743C324.483 36.4128 324.236 35.2983 324.236 34.0308C324.236 32.7524 324.483 31.6353 324.978 30.6792C325.472 29.7178 326.173 28.9712 327.08 28.4395C327.993 27.9023 329.076 27.6338 330.327 27.6338C331.579 27.6338 332.658 27.9023 333.566 28.4395C334.479 28.9712 335.183 29.7178 335.677 30.6792C336.171 31.6353 336.418 32.7524 336.418 34.0308C336.418 35.2983 336.171 36.4128 335.677 37.3743C335.183 38.3303 334.479 39.0769 333.566 39.614C332.658 40.1458 331.579 40.4116 330.327 40.4116ZM330.343 37.7529C330.913 37.7529 331.388 37.5918 331.769 37.2695C332.151 36.9419 332.438 36.4961 332.631 35.9321C332.83 35.3682 332.93 34.7263 332.93 34.0066C332.93 33.2869 332.83 32.645 332.631 32.0811C332.438 31.5171 332.151 31.0713 331.769 30.7437C331.388 30.416 330.913 30.2522 330.343 30.2522C329.769 30.2522 329.285 30.416 328.893 30.7437C328.506 31.0713 328.214 31.5171 328.015 32.0811C327.822 32.645 327.725 33.2869 327.725 34.0066C327.725 34.7263 327.822 35.3682 328.015 35.9321C328.214 36.4961 328.506 36.9419 328.893 37.2695C329.285 37.5918 329.769 37.7529 330.343 37.7529ZM342.082 33.0156V40.1699H338.65V27.7949H341.921V29.9783H342.066C342.34 29.2585 342.799 28.6892 343.443 28.2703C344.088 27.8459 344.869 27.6338 345.788 27.6338C346.647 27.6338 347.397 27.8218 348.036 28.1978C348.675 28.5737 349.172 29.1108 349.526 29.8091C349.881 30.502 350.058 31.3291 350.058 32.2905V40.1699H346.626V32.9028C346.631 32.1455 346.438 31.5547 346.046 31.1304C345.654 30.7007 345.114 30.4858 344.426 30.4858C343.964 30.4858 343.556 30.5852 343.202 30.7839C342.853 30.9827 342.579 31.2727 342.38 31.6541C342.187 32.03 342.087 32.4839 342.082 33.0156Z" fill="#26422B"/>
<path d="M96.1885 58.0596C96.1312 57.5511 95.8949 57.1572 95.4795 56.8779C95.0641 56.5951 94.5413 56.4536 93.9111 56.4536C93.46 56.4536 93.0697 56.5252 92.7402 56.6685C92.4108 56.8081 92.1548 57.0015 91.9722 57.2485C91.7931 57.492 91.7036 57.7695 91.7036 58.0811C91.7036 58.3424 91.7645 58.568 91.8862 58.7578C92.0116 58.9476 92.1745 59.1069 92.375 59.2358C92.5791 59.3612 92.7975 59.4668 93.0303 59.5527C93.263 59.6351 93.4868 59.7031 93.7017 59.7568L94.7759 60.0361C95.1268 60.1221 95.4867 60.2384 95.8555 60.3853C96.2243 60.5321 96.5662 60.7254 96.8813 60.9653C97.1965 61.2052 97.4507 61.5024 97.644 61.8569C97.841 62.2114 97.9395 62.6357 97.9395 63.1299C97.9395 63.7529 97.7783 64.3062 97.4561 64.7896C97.1374 65.2729 96.6737 65.6543 96.0649 65.9336C95.4598 66.2129 94.7275 66.3525 93.8682 66.3525C93.0446 66.3525 92.332 66.2218 91.7305 65.9604C91.1289 65.6991 90.658 65.3285 90.3179 64.8486C89.9777 64.3652 89.7897 63.7923 89.7539 63.1299H91.4189C91.4512 63.5273 91.5801 63.8586 91.8057 64.1235C92.0348 64.3849 92.3267 64.5801 92.6812 64.709C93.0392 64.8343 93.4313 64.897 93.8574 64.897C94.3265 64.897 94.7437 64.8236 95.1089 64.6768C95.4777 64.5264 95.7677 64.3187 95.979 64.0537C96.1903 63.7852 96.2959 63.4718 96.2959 63.1138C96.2959 62.7879 96.2028 62.5212 96.0166 62.3135C95.834 62.1058 95.5851 61.9339 95.27 61.7979C94.9585 61.6618 94.6058 61.5418 94.2119 61.438L92.9121 61.0835C92.0313 60.8436 91.333 60.4909 90.8174 60.0254C90.3053 59.5599 90.0493 58.944 90.0493 58.1777C90.0493 57.5439 90.2212 56.9907 90.5649 56.5181C90.9087 56.0454 91.3742 55.6784 91.9614 55.417C92.5487 55.152 93.2111 55.0195 93.9487 55.0195C94.6935 55.0195 95.3506 55.1502 95.9199 55.4116C96.4928 55.673 96.944 56.0329 97.2734 56.4912C97.6029 56.946 97.7747 57.4687 97.7891 58.0596H96.1885ZM105.02 62.7485V57.9199H106.631V66.1699H105.052V64.7412H104.966C104.776 65.1816 104.472 65.5487 104.053 65.8423C103.638 66.1323 103.12 66.2773 102.501 66.2773C101.971 66.2773 101.502 66.161 101.094 65.9282C100.689 65.6919 100.37 65.3428 100.138 64.8809C99.9084 64.4189 99.7938 63.8478 99.7938 63.1675V57.9199H101.4V62.9741C101.4 63.5363 101.556 63.9839 101.867 64.3169C102.179 64.6499 102.583 64.8164 103.081 64.8164C103.382 64.8164 103.681 64.7412 103.978 64.5908C104.279 64.4404 104.528 64.2131 104.724 63.9087C104.925 63.6043 105.023 63.2176 105.02 62.7485ZM108.789 66.1699V57.9199H110.331V59.2627H110.433C110.604 58.8079 110.886 58.4535 111.276 58.1992C111.666 57.9414 112.133 57.8125 112.678 57.8125C113.229 57.8125 113.691 57.9414 114.063 58.1992C114.439 58.457 114.717 58.8115 114.896 59.2627H114.982C115.179 58.8223 115.492 58.4714 115.922 58.21C116.352 57.945 116.864 57.8125 117.458 57.8125C118.206 57.8125 118.817 58.047 119.29 58.5161C119.766 58.9852 120.004 59.6924 120.004 60.6377V66.1699H118.398V60.7881C118.398 60.2295 118.246 59.8249 117.941 59.5742C117.637 59.3236 117.274 59.1982 116.851 59.1982C116.328 59.1982 115.922 59.3594 115.632 59.6816C115.342 60.0003 115.197 60.4103 115.197 60.9116V66.1699H113.596V60.686C113.596 60.2384 113.457 59.8786 113.177 59.6064C112.898 59.3343 112.535 59.1982 112.087 59.1982C111.783 59.1982 111.501 59.2788 111.244 59.4399C110.989 59.5975 110.784 59.8177 110.626 60.1006C110.472 60.3835 110.395 60.7111 110.395 61.0835V66.1699H108.789ZM122.156 66.1699V57.9199H123.698V59.2627H123.8C123.972 58.8079 124.253 58.4535 124.643 58.1992C125.033 57.9414 125.501 57.8125 126.045 57.8125C126.596 57.8125 127.058 57.9414 127.431 58.1992C127.807 58.457 128.084 58.8115 128.263 59.2627H128.349C128.546 58.8223 128.859 58.4714 129.289 58.21C129.719 57.945 130.231 57.8125 130.825 57.8125C131.574 57.8125 132.184 58.047 132.657 58.5161C133.133 58.9852 133.371 59.6924 133.371 60.6377V66.1699H131.765V60.7881C131.765 60.2295 131.613 59.8249 131.309 59.5742C131.004 59.3236 130.641 59.1982 130.218 59.1982C129.696 59.1982 129.289 59.3594 128.999 59.6816C128.709 60.0003 128.564 60.4103 128.564 60.9116V66.1699H126.964V60.686C126.964 60.2384 126.824 59.8786 126.545 59.6064C126.265 59.3343 125.902 59.1982 125.454 59.1982C125.15 59.1982 124.869 59.2788 124.611 59.4399C124.357 59.5975 124.151 59.8177 123.993 60.1006C123.839 60.3835 123.762 60.7111 123.762 61.0835V66.1699H122.156ZM139.079 66.3364C138.267 66.3364 137.566 66.1628 136.979 65.8154C136.396 65.4645 135.944 64.9722 135.626 64.3384C135.311 63.701 135.153 62.9544 135.153 62.0986C135.153 61.2536 135.311 60.5088 135.626 59.8643C135.944 59.2197 136.388 58.7166 136.958 58.355C137.531 57.9933 138.2 57.8125 138.967 57.8125C139.432 57.8125 139.883 57.8895 140.32 58.0435C140.757 58.1974 141.149 58.4391 141.496 58.7686C141.844 59.098 142.118 59.5259 142.318 60.0522C142.519 60.575 142.619 61.2106 142.619 61.959V62.5283H136.061V61.3252H141.045C141.045 60.9027 140.959 60.5285 140.787 60.2026C140.615 59.8732 140.374 59.6136 140.062 59.4238C139.754 59.234 139.393 59.1392 138.977 59.1392C138.526 59.1392 138.132 59.2502 137.796 59.4722C137.463 59.6906 137.205 59.9771 137.022 60.3315C136.843 60.6825 136.754 61.0638 136.754 61.4756V62.4155C136.754 62.967 136.85 63.436 137.044 63.8228C137.241 64.2095 137.515 64.5049 137.865 64.709C138.216 64.9095 138.626 65.0098 139.095 65.0098C139.4 65.0098 139.677 64.9668 139.928 64.8809C140.179 64.7913 140.395 64.6589 140.578 64.4834C140.76 64.3079 140.9 64.0913 140.997 63.8335L142.517 64.1074C142.395 64.555 142.177 64.9471 141.862 65.2837C141.55 65.6167 141.158 65.8763 140.685 66.0625C140.216 66.2451 139.681 66.3364 139.079 66.3364ZM144.401 66.1699V57.9199H145.953V59.2305H146.039C146.189 58.7865 146.454 58.4373 146.834 58.1831C147.217 57.9253 147.65 57.7964 148.134 57.7964C148.234 57.7964 148.352 57.8 148.488 57.8071C148.628 57.8143 148.737 57.8232 148.816 57.834V59.3701C148.751 59.3522 148.637 59.3325 148.472 59.311C148.307 59.286 148.143 59.2734 147.978 59.2734C147.598 59.2734 147.26 59.354 146.963 59.5151C146.669 59.6727 146.436 59.8929 146.265 60.1758C146.093 60.4551 146.007 60.7738 146.007 61.1318V66.1699H144.401ZM154.187 66.1699V64.9668L157.909 61.1104C158.307 60.6914 158.634 60.3244 158.892 60.0093C159.153 59.6906 159.349 59.388 159.477 59.1016C159.606 58.8151 159.671 58.5107 159.671 58.1885C159.671 57.8232 159.585 57.5081 159.413 57.2432C159.241 56.9746 159.007 56.7687 158.709 56.6255C158.412 56.4787 158.077 56.4053 157.705 56.4053C157.311 56.4053 156.967 56.4858 156.674 56.647C156.38 56.8081 156.155 57.0355 155.997 57.3291C155.839 57.6227 155.761 57.9665 155.761 58.3604H154.176C154.176 57.6908 154.33 57.1053 154.638 56.604C154.946 56.1027 155.369 55.7142 155.906 55.4385C156.443 55.1592 157.053 55.0195 157.737 55.0195C158.428 55.0195 159.037 55.1574 159.563 55.4331C160.093 55.7052 160.507 56.0776 160.804 56.5503C161.101 57.0194 161.25 57.5493 161.25 58.1401C161.25 58.5483 161.173 58.9476 161.019 59.3379C160.869 59.7282 160.605 60.1632 160.229 60.6431C159.853 61.1193 159.331 61.6976 158.661 62.3779L156.475 64.666V64.7466H161.427V66.1699H154.187ZM167.292 66.3525C166.444 66.349 165.719 66.1252 165.117 65.6812C164.516 65.2371 164.055 64.5908 163.737 63.7422C163.418 62.8936 163.259 61.8713 163.259 60.6753C163.259 59.4829 163.418 58.4642 163.737 57.6191C164.059 56.7741 164.521 56.1296 165.122 55.6855C165.728 55.2415 166.451 55.0195 167.292 55.0195C168.134 55.0195 168.855 55.2433 169.457 55.6909C170.058 56.1349 170.519 56.7795 170.837 57.6245C171.16 58.466 171.321 59.4829 171.321 60.6753C171.321 61.8748 171.161 62.8989 170.843 63.7476C170.524 64.5926 170.064 65.2389 169.462 65.6865C168.861 66.1305 168.137 66.3525 167.292 66.3525ZM167.292 64.9185C168.037 64.9185 168.619 64.555 169.038 63.8281C169.46 63.1012 169.672 62.0503 169.672 60.6753C169.672 59.7622 169.575 58.9906 169.382 58.3604C169.192 57.7266 168.918 57.2467 168.56 56.9209C168.205 56.5915 167.783 56.4268 167.292 56.4268C166.551 56.4268 165.969 56.792 165.547 57.5225C165.124 58.2529 164.911 59.3039 164.908 60.6753C164.908 61.592 165.002 62.3672 165.192 63.001C165.386 63.6312 165.66 64.1092 166.014 64.4351C166.369 64.7573 166.795 64.9185 167.292 64.9185ZM173.226 66.1699V64.9668L176.948 61.1104C177.346 60.6914 177.673 60.3244 177.931 60.0093C178.193 59.6906 178.388 59.388 178.517 59.1016C178.646 58.8151 178.71 58.5107 178.71 58.1885C178.71 57.8232 178.624 57.5081 178.452 57.2432C178.28 56.9746 178.046 56.7687 177.749 56.6255C177.451 56.4787 177.117 56.4053 176.744 56.4053C176.35 56.4053 176.007 56.4858 175.713 56.647C175.419 56.8081 175.194 57.0355 175.036 57.3291C174.879 57.6227 174.8 57.9665 174.8 58.3604H173.215C173.215 57.6908 173.369 57.1053 173.677 56.604C173.985 56.1027 174.408 55.7142 174.945 55.4385C175.482 55.1592 176.092 55.0195 176.776 55.0195C177.467 55.0195 178.076 55.1574 178.603 55.4331C179.132 55.7052 179.546 56.0776 179.843 56.5503C180.14 57.0194 180.289 57.5493 180.289 58.1401C180.289 58.5483 180.212 58.9476 180.058 59.3379C179.908 59.7282 179.645 60.1632 179.269 60.6431C178.893 61.1193 178.37 61.6976 177.7 62.3779L175.514 64.666V64.7466H180.466V66.1699H173.226ZM186.332 66.3203C185.594 66.3203 184.935 66.1932 184.355 65.939C183.778 65.6847 183.322 65.332 182.985 64.8809C182.652 64.4261 182.473 63.8997 182.448 63.3018H184.135C184.156 63.6276 184.265 63.9105 184.462 64.1504C184.663 64.3867 184.924 64.5693 185.247 64.6982C185.569 64.8271 185.927 64.8916 186.321 64.8916C186.754 64.8916 187.137 64.8164 187.47 64.666C187.807 64.5156 188.07 64.3062 188.26 64.0376C188.45 63.7655 188.544 63.4521 188.544 63.0977C188.544 62.7288 188.45 62.4048 188.26 62.1255C188.074 61.8426 187.8 61.6206 187.438 61.4595C187.08 61.2983 186.647 61.2178 186.138 61.2178H185.209V59.8643H186.138C186.546 59.8643 186.904 59.7909 187.212 59.644C187.524 59.4972 187.767 59.2931 187.943 59.0317C188.118 58.7668 188.206 58.457 188.206 58.1025C188.206 57.7624 188.129 57.467 187.975 57.2163C187.825 56.9621 187.61 56.7633 187.331 56.6201C187.055 56.4769 186.729 56.4053 186.353 56.4053C185.995 56.4053 185.66 56.4715 185.349 56.604C185.041 56.7329 184.79 56.9191 184.597 57.1626C184.403 57.4025 184.299 57.6908 184.285 58.0273H182.679C182.697 57.4329 182.873 56.9102 183.206 56.459C183.542 56.0078 183.986 55.6551 184.538 55.4009C185.089 55.1466 185.701 55.0195 186.375 55.0195C187.08 55.0195 187.689 55.1574 188.201 55.4331C188.716 55.7052 189.114 56.0687 189.393 56.5234C189.676 56.9782 189.816 57.4759 189.812 58.0166C189.816 58.6325 189.644 59.1553 189.296 59.585C188.953 60.0146 188.494 60.3029 187.921 60.4497V60.5356C188.652 60.6466 189.218 60.9367 189.619 61.4058C190.023 61.8748 190.224 62.4567 190.22 63.1514C190.224 63.7565 190.056 64.299 189.715 64.7788C189.379 65.2586 188.919 65.6364 188.335 65.9121C187.751 66.1842 187.083 66.3203 186.332 66.3203Z" fill="#26422B"/>
<defs>
<clipPath id="clip0_238_2094">
<rect width="32" height="32" fill="white" transform="translate(32.9805 28.1699)"/>
</clipPath>
<clipPath id="clip1_238_2094">
<rect width="32" height="32" fill="white" transform="translate(32.9805 28.1699)"/>
</clipPath>
</defs>
</svg>
