<svg width="176" height="56" viewBox="0 0 176 56" fill="none" xmlns="http://www.w3.org/2000/svg">
<rect width="175.41" height="56" rx="28" fill="#273F2B"/>
<path d="M31.6802 25.7556C31.622 25.2387 31.3818 24.8383 30.9595 24.5544C30.5373 24.2669 30.0059 24.1231 29.3653 24.1231C28.9066 24.1231 28.5099 24.1959 28.175 24.3415C27.8401 24.4834 27.5799 24.68 27.3942 24.9312C27.2122 25.1787 27.1213 25.4608 27.1213 25.7774C27.1213 26.0431 27.1831 26.2725 27.3069 26.4654C27.4343 26.6583 27.5999 26.8203 27.8037 26.9513C28.0112 27.0787 28.2332 27.1861 28.4698 27.2734C28.7064 27.3572 28.9339 27.4263 29.1523 27.4809L30.2443 27.7648C30.601 27.8522 30.9668 27.9705 31.3417 28.1197C31.7166 28.269 32.0643 28.4655 32.3846 28.7094C32.7049 28.9533 32.9633 29.2554 33.1599 29.6157C33.3601 29.9761 33.4602 30.4074 33.4602 30.9097C33.4602 31.5431 33.2964 32.1054 32.9688 32.5968C32.6448 33.0882 32.1735 33.4759 31.5547 33.7598C30.9395 34.0437 30.1952 34.1856 29.3216 34.1856C28.4844 34.1856 27.7601 34.0528 27.1486 33.7871C26.537 33.5214 26.0584 33.1446 25.7126 32.6569C25.3668 32.1655 25.1757 31.5831 25.1393 30.9097H26.8319C26.8646 31.3137 26.9957 31.6504 27.225 31.9198C27.4579 32.1855 27.7546 32.3839 28.1149 32.5149C28.4789 32.6423 28.8775 32.706 29.3107 32.706C29.7875 32.706 30.2115 32.6314 30.5828 32.4822C30.9577 32.3293 31.2526 32.1182 31.4673 31.8488C31.6821 31.5758 31.7894 31.2573 31.7894 30.8933C31.7894 30.5621 31.6948 30.2909 31.5055 30.0798C31.3199 29.8687 31.0669 29.694 30.7466 29.5557C30.4299 29.4173 30.0714 29.2954 29.671 29.1899L28.3497 28.8295C27.4543 28.5856 26.7445 28.2271 26.2204 27.7539C25.6999 27.2807 25.4396 26.6547 25.4396 25.8757C25.4396 25.2314 25.6143 24.6691 25.9638 24.1886C26.3132 23.7081 26.7864 23.335 27.3833 23.0693C27.9803 22.8 28.6537 22.6653 29.4035 22.6653C30.1606 22.6653 30.8285 22.7982 31.4073 23.0639C31.9896 23.3296 32.4483 23.6954 32.7831 24.1613C33.118 24.6236 33.2927 25.155 33.3073 25.7556H31.6802ZM38.8777 34.1693C38.066 34.1693 37.3672 33.9854 36.7811 33.6178C36.1987 33.2465 35.751 32.7351 35.438 32.0836C35.125 31.432 34.9685 30.6859 34.9685 29.845C34.9685 28.9933 35.1286 28.2417 35.4489 27.5901C35.7692 26.9349 36.2206 26.4235 36.803 26.0559C37.3854 25.6883 38.0715 25.5044 38.8613 25.5044C39.4983 25.5044 40.0662 25.6227 40.5648 25.8593C41.0635 26.0923 41.4657 26.4199 41.7715 26.8421C42.0808 27.2643 42.2647 27.7575 42.3229 28.3217H40.7341C40.6467 27.9286 40.4465 27.5901 40.1335 27.3062C39.8241 27.0223 39.4091 26.8803 38.8886 26.8803C38.4337 26.8803 38.0351 27.0004 37.6929 27.2407C37.3544 27.4773 37.0905 27.8158 36.9012 28.2562C36.712 28.693 36.6173 29.2099 36.6173 29.8068C36.6173 30.4183 36.7102 30.9461 36.8958 31.3902C37.0814 31.8343 37.3435 32.1782 37.682 32.4221C38.0242 32.666 38.4264 32.7879 38.8886 32.7879C39.198 32.7879 39.4783 32.7315 39.7295 32.6187C39.9843 32.5022 40.1972 32.3366 40.3683 32.1218C40.543 31.907 40.6649 31.6486 40.7341 31.3465H42.3229C42.2647 31.8888 42.0881 32.373 41.7933 32.7988C41.4985 33.2247 41.1035 33.5596 40.6085 33.8034C40.1171 34.0473 39.5402 34.1693 38.8777 34.1693ZM45.7012 29.0206V34H44.0687V22.8182H45.6794V26.9786H45.7831C45.9796 26.5273 46.2799 26.1687 46.684 25.903C47.088 25.6373 47.6158 25.5044 48.2673 25.5044C48.8424 25.5044 49.3448 25.6227 49.7743 25.8593C50.2074 26.0959 50.5423 26.449 50.7789 26.9185C51.0191 27.3845 51.1392 27.9668 51.1392 28.6657V34H49.5067V28.8623C49.5067 28.2471 49.3484 27.7703 49.0317 27.4318C48.715 27.0896 48.2746 26.9185 47.7104 26.9185C47.3246 26.9185 46.9788 27.0004 46.6731 27.1642C46.3709 27.328 46.1325 27.5683 45.9578 27.8849C45.7867 28.198 45.7012 28.5765 45.7012 29.0206ZM56.9322 34.1693C56.1059 34.1693 55.3943 33.9927 54.7973 33.6396C54.204 33.2829 53.7454 32.7824 53.4215 32.1382C53.1011 31.4903 52.941 30.7314 52.941 29.8614C52.941 29.0024 53.1011 28.2453 53.4215 27.5901C53.7454 26.9349 54.1968 26.4235 54.7755 26.0559C55.3579 25.6883 56.0386 25.5044 56.8175 25.5044C57.2907 25.5044 57.7493 25.5827 58.1934 25.7392C58.6375 25.8957 59.036 26.1414 59.3891 26.4763C59.7422 26.8112 60.0206 27.2461 60.2245 27.7812C60.4283 28.3126 60.5302 28.9587 60.5302 29.7195V30.2982H53.8637V29.0752H58.9305C58.9305 28.6457 58.8431 28.2653 58.6684 27.9341C58.4937 27.5992 58.248 27.3353 57.9313 27.1424C57.6183 26.9495 57.2506 26.853 56.8284 26.853C56.3698 26.853 55.9694 26.9659 55.6272 27.1915C55.2887 27.4136 55.0267 27.7048 54.841 28.0651C54.659 28.4218 54.568 28.8095 54.568 29.2281V30.1835C54.568 30.7441 54.6663 31.2209 54.8629 31.614C55.0631 32.0071 55.3415 32.3074 55.6982 32.5149C56.0549 32.7187 56.4717 32.8207 56.9485 32.8207C57.2579 32.8207 57.54 32.777 57.7948 32.6896C58.0496 32.5986 58.2698 32.464 58.4555 32.2856C58.6411 32.1072 58.7831 31.887 58.8813 31.625L60.4265 31.9034C60.3027 32.3584 60.0807 32.757 59.7604 33.0991C59.4437 33.4376 59.0451 33.7015 58.5647 33.8908C58.0878 34.0764 57.5437 34.1693 56.9322 34.1693ZM65.4809 34.1638C64.8039 34.1638 64.1997 33.9909 63.6683 33.6451C63.1405 33.2957 62.7255 32.7988 62.4234 32.1546C62.1249 31.5067 61.9757 30.7295 61.9757 29.8232C61.9757 28.9169 62.1268 28.1416 62.4289 27.4973C62.7346 26.853 63.1532 26.3598 63.6847 26.0177C64.2161 25.6755 64.8185 25.5044 65.4919 25.5044C66.0124 25.5044 66.431 25.5918 66.7476 25.7665C67.068 25.9376 67.3155 26.1378 67.4902 26.3671C67.6685 26.5964 67.8069 26.7984 67.9051 26.9731H68.0034V22.8182H69.6359V34H68.0416V32.6951H67.9051C67.8069 32.8734 67.6649 33.0773 67.4793 33.3066C67.2973 33.5359 67.0461 33.7361 66.7258 33.9072C66.4055 34.0783 65.9905 34.1638 65.4809 34.1638ZM65.8413 32.7715C66.3108 32.7715 66.7076 32.6478 67.0316 32.4003C67.3591 32.1491 67.6067 31.8015 67.7741 31.3574C67.9452 30.9134 68.0307 30.3965 68.0307 29.8068C68.0307 29.2244 67.947 28.7148 67.7796 28.2781C67.6121 27.8413 67.3664 27.5009 67.0425 27.2571C66.7185 27.0132 66.3181 26.8912 65.8413 26.8912C65.3499 26.8912 64.9404 27.0186 64.6128 27.2734C64.2852 27.5282 64.0377 27.8758 63.8703 28.3163C63.7065 28.7567 63.6246 29.2536 63.6246 29.8068C63.6246 30.3674 63.7083 30.8715 63.8757 31.3192C64.0432 31.7669 64.2907 32.1218 64.6183 32.3839C64.9495 32.6423 65.3572 32.7715 65.8413 32.7715ZM77.2784 30.5221V25.6136H78.9163V34H77.3111V32.5477H77.2238C77.0309 32.9954 76.7215 33.3685 76.2956 33.6669C75.8734 33.9618 75.3474 34.1092 74.7177 34.1092C74.179 34.1092 73.7022 33.9909 73.2872 33.7543C72.8759 33.5141 72.5519 33.1592 72.3153 32.6896C72.0824 32.2201 71.9659 31.6395 71.9659 30.9479V25.6136H73.5984V30.7514C73.5984 31.3228 73.7567 31.7778 74.0734 32.1163C74.3901 32.4549 74.8014 32.6241 75.3074 32.6241C75.6131 32.6241 75.917 32.5477 76.2192 32.3948C76.5249 32.2419 76.7779 32.0108 76.9781 31.7014C77.1819 31.392 77.282 30.9989 77.2784 30.5221ZM82.7423 22.8182V34H81.1098V22.8182H82.7423ZM88.553 34.1693C87.7267 34.1693 87.0151 33.9927 86.4182 33.6396C85.8249 33.2829 85.3663 32.7824 85.0423 32.1382C84.722 31.4903 84.5618 30.7314 84.5618 29.8614C84.5618 29.0024 84.722 28.2453 85.0423 27.5901C85.3663 26.9349 85.8176 26.4235 86.3964 26.0559C86.9787 25.6883 87.6594 25.5044 88.4383 25.5044C88.9115 25.5044 89.3702 25.5827 89.8142 25.7392C90.2583 25.8957 90.6569 26.1414 91.0099 26.4763C91.363 26.8112 91.6415 27.2461 91.8453 27.7812C92.0491 28.3126 92.1511 28.9587 92.1511 29.7195V30.2982H85.4846V29.0752H90.5513C90.5513 28.6457 90.464 28.2653 90.2892 27.9341C90.1145 27.5992 89.8688 27.3353 89.5522 27.1424C89.2391 26.9495 88.8715 26.853 88.4493 26.853C87.9906 26.853 87.5902 26.9659 87.2481 27.1915C86.9096 27.4136 86.6475 27.7048 86.4619 28.0651C86.2799 28.4218 86.1889 28.8095 86.1889 29.2281V30.1835C86.1889 30.7441 86.2872 31.2209 86.4837 31.614C86.6839 32.0071 86.9624 32.3074 87.3191 32.5149C87.6758 32.7187 88.0926 32.8207 88.5694 32.8207C88.8788 32.8207 89.1609 32.777 89.4157 32.6896C89.6705 32.5986 89.8907 32.464 90.0763 32.2856C90.2619 32.1072 90.4039 31.887 90.5022 31.625L92.0473 31.9034C91.9236 32.3584 91.7015 32.757 91.3812 33.0991C91.0645 33.4376 90.666 33.7015 90.1855 33.8908C89.7087 34.0764 89.1645 34.1693 88.553 34.1693ZM100.472 34.1856C99.9405 34.1856 99.46 34.0874 99.0305 33.8908C98.601 33.6906 98.2607 33.4012 98.0095 33.0227C97.762 32.6441 97.6382 32.18 97.6382 31.6304C97.6382 31.1572 97.7292 30.7678 97.9112 30.462C98.0932 30.1562 98.3389 29.9142 98.6483 29.7358C98.9577 29.5575 99.3035 29.4228 99.6857 29.3318C100.068 29.2408 100.457 29.1717 100.854 29.1243C101.356 29.0661 101.764 29.0188 102.077 28.9824C102.39 28.9423 102.618 28.8786 102.76 28.7913C102.902 28.7039 102.973 28.562 102.973 28.3654V28.3272C102.973 27.8504 102.838 27.4809 102.568 27.2188C102.303 26.9568 101.906 26.8257 101.378 26.8257C100.829 26.8257 100.395 26.9477 100.079 27.1915C99.7658 27.4318 99.5492 27.6993 99.4291 27.9941L97.8948 27.6447C98.0768 27.1351 98.3426 26.7238 98.692 26.4108C99.0451 26.0941 99.4509 25.8648 99.9095 25.7228C100.368 25.5772 100.85 25.5044 101.356 25.5044C101.691 25.5044 102.046 25.5445 102.421 25.6246C102.8 25.701 103.153 25.843 103.48 26.0504C103.812 26.2579 104.083 26.5546 104.294 26.9404C104.505 27.3226 104.61 27.8194 104.61 28.4309V34H103.016V32.8534H102.951C102.845 33.0645 102.687 33.272 102.476 33.4759C102.265 33.6797 101.993 33.8489 101.662 33.9836C101.331 34.1183 100.934 34.1856 100.472 34.1856ZM100.827 32.8753C101.278 32.8753 101.664 32.7861 101.984 32.6077C102.308 32.4294 102.554 32.1964 102.721 31.9089C102.892 31.6177 102.978 31.3065 102.978 30.9752V29.8942C102.92 29.9524 102.807 30.007 102.639 30.058C102.476 30.1053 102.288 30.1472 102.077 30.1835C101.866 30.2163 101.66 30.2472 101.46 30.2764C101.26 30.3018 101.093 30.3237 100.958 30.3419C100.641 30.3819 100.352 30.4493 100.09 30.5439C99.8313 30.6385 99.6238 30.775 99.4673 30.9534C99.3144 31.1281 99.238 31.3611 99.238 31.6523C99.238 32.0563 99.3872 32.362 99.6857 32.5695C99.9842 32.7733 100.365 32.8753 100.827 32.8753ZM113.993 34.1638C113.316 34.1638 112.712 33.9909 112.181 33.6451C111.653 33.2957 111.238 32.7988 110.936 32.1546C110.637 31.5067 110.488 30.7295 110.488 29.8232C110.488 28.9169 110.639 28.1416 110.941 27.4973C111.247 26.853 111.666 26.3598 112.197 26.0177C112.728 25.6755 113.331 25.5044 114.004 25.5044C114.525 25.5044 114.943 25.5918 115.26 25.7665C115.58 25.9376 115.828 26.1378 116.003 26.3671C116.181 26.5964 116.319 26.7984 116.417 26.9731H116.516V22.8182H118.148V34H116.554V32.6951H116.417C116.319 32.8734 116.177 33.0773 115.992 33.3066C115.81 33.5359 115.558 33.7361 115.238 33.9072C114.918 34.0783 114.503 34.1638 113.993 34.1638ZM114.354 32.7715C114.823 32.7715 115.22 32.6478 115.544 32.4003C115.871 32.1491 116.119 31.8015 116.286 31.3574C116.457 30.9134 116.543 30.3965 116.543 29.8068C116.543 29.2244 116.459 28.7148 116.292 28.2781C116.124 27.8413 115.879 27.5009 115.555 27.2571C115.231 27.0132 114.83 26.8912 114.354 26.8912C113.862 26.8912 113.453 27.0186 113.125 27.2734C112.798 27.5282 112.55 27.8758 112.383 28.3163C112.219 28.7567 112.137 29.2536 112.137 29.8068C112.137 30.3674 112.221 30.8715 112.388 31.3192C112.556 31.7669 112.803 32.1218 113.131 32.3839C113.462 32.6423 113.87 32.7715 114.354 32.7715ZM124.093 34.1693C123.266 34.1693 122.555 33.9927 121.958 33.6396C121.365 33.2829 120.906 32.7824 120.582 32.1382C120.262 31.4903 120.102 30.7314 120.102 29.8614C120.102 29.0024 120.262 28.2453 120.582 27.5901C120.906 26.9349 121.357 26.4235 121.936 26.0559C122.518 25.6883 123.199 25.5044 123.978 25.5044C124.451 25.5044 124.91 25.5827 125.354 25.7392C125.798 25.8957 126.197 26.1414 126.55 26.4763C126.903 26.8112 127.181 27.2461 127.385 27.7812C127.589 28.3126 127.691 28.9587 127.691 29.7195V30.2982H121.024V29.0752H126.091C126.091 28.6457 126.004 28.2653 125.829 27.9341C125.654 27.5992 125.409 27.3353 125.092 27.1424C124.779 26.9495 124.411 26.853 123.989 26.853C123.53 26.853 123.13 26.9659 122.788 27.1915C122.449 27.4136 122.187 27.7048 122.002 28.0651C121.82 28.4218 121.729 28.8095 121.729 29.2281V30.1835C121.729 30.7441 121.827 31.2209 122.023 31.614C122.224 32.0071 122.502 32.3074 122.859 32.5149C123.215 32.7187 123.632 32.8207 124.109 32.8207C124.418 32.8207 124.701 32.777 124.955 32.6896C125.21 32.5986 125.43 32.464 125.616 32.2856C125.802 32.1072 125.944 31.887 126.042 31.625L127.587 31.9034C127.463 32.3584 127.241 32.757 126.921 33.0991C126.604 33.4376 126.206 33.7015 125.725 33.8908C125.248 34.0764 124.704 34.1693 124.093 34.1693ZM129.502 34V25.6136H131.069V26.9786H131.173C131.347 26.5163 131.633 26.156 132.03 25.8975C132.427 25.6355 132.902 25.5044 133.455 25.5044C134.016 25.5044 134.485 25.6355 134.864 25.8975C135.246 26.1596 135.528 26.52 135.71 26.9786H135.797C135.997 26.5309 136.316 26.1742 136.753 25.9085C137.19 25.6391 137.71 25.5044 138.314 25.5044C139.075 25.5044 139.696 25.7429 140.176 26.2197C140.66 26.6965 140.902 27.4154 140.902 28.3763V34H139.27V28.5292C139.27 27.9614 139.115 27.5501 138.806 27.2953C138.496 27.0405 138.127 26.9131 137.697 26.9131C137.166 26.9131 136.753 27.0769 136.458 27.4045C136.163 27.7284 136.016 28.1452 136.016 28.6548V34H134.389V28.4255C134.389 27.9705 134.247 27.6047 133.963 27.328C133.679 27.0514 133.309 26.9131 132.854 26.9131C132.545 26.9131 132.259 26.995 131.997 27.1588C131.739 27.3189 131.529 27.5428 131.369 27.8303C131.213 28.1179 131.135 28.4509 131.135 28.8295V34H129.502ZM146.623 34.1693C145.837 34.1693 145.15 33.9891 144.564 33.6287C143.978 33.2684 143.523 32.7642 143.199 32.1163C142.876 31.4684 142.714 30.7113 142.714 29.845C142.714 28.9751 142.876 28.2144 143.199 27.5628C143.523 26.9113 143.978 26.4053 144.564 26.045C145.15 25.6846 145.837 25.5044 146.623 25.5044C147.409 25.5044 148.095 25.6846 148.681 26.045C149.267 26.4053 149.722 26.9113 150.046 27.5628C150.37 28.2144 150.532 28.9751 150.532 29.845C150.532 30.7113 150.37 31.4684 150.046 32.1163C149.722 32.7642 149.267 33.2684 148.681 33.6287C148.095 33.9891 147.409 34.1693 146.623 34.1693ZM146.628 32.7988C147.138 32.7988 147.56 32.6642 147.895 32.3948C148.23 32.1254 148.477 31.7669 148.638 31.3192C148.801 30.8715 148.883 30.3783 148.883 29.8396C148.883 29.3045 148.801 28.8131 148.638 28.3654C148.477 27.9141 148.23 27.5519 147.895 27.2789C147.56 27.0059 147.138 26.8694 146.628 26.8694C146.115 26.8694 145.689 27.0059 145.351 27.2789C145.016 27.5519 144.766 27.9141 144.603 28.3654C144.443 28.8131 144.362 29.3045 144.362 29.8396C144.362 30.3783 144.443 30.8715 144.603 31.3192C144.766 31.7669 145.016 32.1254 145.351 32.3948C145.689 32.6642 146.115 32.7988 146.628 32.7988Z" fill="white"/>
</svg>
