<svg width="268" height="89" viewBox="0 0 268 89" fill="none" xmlns="http://www.w3.org/2000/svg">
<rect y="0.169922" width="267.98" height="88" rx="8" fill="#CAF1B1"/>
<rect x="24" y="20.1699" width="48" height="48" rx="24" fill="white"/>
<g clip-path="url(#clip0_238_2085)">
<g clip-path="url(#clip1_238_2085)">
<path d="M49.1639 50.0949V52.5099H54.982V54.8523H41.0184V52.5099H46.8366V50.0949C42.2445 49.5185 38.6911 45.5756 38.6911 40.7975V33.77H57.3093V40.7975C57.3093 45.5756 53.7559 49.5185 49.1639 50.0949ZM41.0184 36.1125V40.7975C41.0184 44.6786 44.1442 47.8249 48.0002 47.8249C51.8561 47.8249 54.982 44.6786 54.982 40.7975V36.1125H41.0184ZM35.2002 36.1125H37.5275V40.7975H35.2002V36.1125ZM58.4729 36.1125H60.8002V40.7975H58.4729V36.1125Z" fill="#273F2B"/>
</g>
</g>
<path d="M89.4341 40.1699V23.6699H100.552V26.5461H92.9226V30.4778H99.9802V33.354H92.9226V37.2937H100.584V40.1699H89.4341ZM106.79 40.4036C106.001 40.4036 105.297 40.2666 104.679 39.9927C104.062 39.7134 103.573 39.3025 103.213 38.76C102.858 38.2122 102.681 37.53 102.681 36.7136C102.681 36.0261 102.807 35.4487 103.06 34.9814C103.312 34.5142 103.656 34.1382 104.091 33.8535C104.526 33.5688 105.02 33.354 105.574 33.209C106.132 33.064 106.718 32.9619 107.33 32.9028C108.05 32.8276 108.63 32.7578 109.07 32.6934C109.511 32.6235 109.83 32.5215 110.029 32.3872C110.228 32.2529 110.327 32.0542 110.327 31.791V31.7427C110.327 31.2324 110.166 30.8376 109.844 30.5583C109.527 30.2791 109.076 30.1394 108.49 30.1394C107.872 30.1394 107.381 30.2764 107.016 30.5503C106.65 30.8188 106.409 31.1572 106.291 31.5654L103.116 31.3076C103.277 30.5557 103.594 29.9058 104.067 29.3579C104.54 28.8047 105.149 28.3804 105.896 28.085C106.648 27.7842 107.518 27.6338 108.506 27.6338C109.194 27.6338 109.852 27.7144 110.48 27.8755C111.114 28.0366 111.675 28.2864 112.164 28.6248C112.658 28.9631 113.047 29.3982 113.332 29.9299C113.617 30.4563 113.759 31.0874 113.759 31.8232V40.1699H110.504V38.4539H110.408C110.209 38.8406 109.943 39.1816 109.61 39.4771C109.277 39.7671 108.877 39.9954 108.409 40.1619C107.942 40.323 107.402 40.4036 106.79 40.4036ZM107.773 38.0349C108.278 38.0349 108.724 37.9355 109.11 37.7368C109.497 37.5327 109.801 37.2588 110.021 36.915C110.241 36.5713 110.351 36.1819 110.351 35.7468V34.4336C110.244 34.5034 110.096 34.5679 109.908 34.627C109.725 34.6807 109.519 34.7317 109.288 34.78C109.057 34.823 108.826 34.8633 108.595 34.9009C108.364 34.9331 108.154 34.9626 107.966 34.9895C107.564 35.0486 107.212 35.1426 106.911 35.2715C106.61 35.4004 106.377 35.575 106.21 35.7952C106.044 36.01 105.96 36.2786 105.96 36.6008C105.96 37.0681 106.129 37.4253 106.468 37.6724C106.812 37.9141 107.247 38.0349 107.773 38.0349ZM126.718 31.3237L123.576 31.5171C123.522 31.2485 123.407 31.0068 123.23 30.792C123.052 30.5718 122.819 30.3972 122.529 30.2683C122.244 30.134 121.903 30.0669 121.506 30.0669C120.974 30.0669 120.525 30.1797 120.16 30.4053C119.795 30.6255 119.612 30.9209 119.612 31.2915C119.612 31.5869 119.73 31.8367 119.967 32.0408C120.203 32.2449 120.609 32.4087 121.183 32.5322L123.423 32.9834C124.626 33.2305 125.523 33.6279 126.114 34.1758C126.705 34.7236 127 35.4434 127 36.335C127 37.146 126.761 37.8577 126.283 38.47C125.81 39.0823 125.161 39.5603 124.333 39.9041C123.512 40.2424 122.564 40.4116 121.489 40.4116C119.851 40.4116 118.546 40.0706 117.574 39.3884C116.607 38.7009 116.04 37.7664 115.874 36.5847L119.25 36.4075C119.352 36.907 119.599 37.2883 119.991 37.5515C120.383 37.8093 120.885 37.9382 121.497 37.9382C122.099 37.9382 122.582 37.8228 122.948 37.5918C123.318 37.3555 123.506 37.052 123.512 36.6814C123.506 36.3699 123.375 36.1147 123.117 35.916C122.859 35.7119 122.462 35.5562 121.924 35.4487L119.781 35.0217C118.573 34.78 117.673 34.3611 117.082 33.7649C116.497 33.1687 116.204 32.4087 116.204 31.4849C116.204 30.6899 116.419 30.0051 116.849 29.4304C117.284 28.8557 117.893 28.4126 118.678 28.1011C119.467 27.7896 120.391 27.6338 121.449 27.6338C123.012 27.6338 124.242 27.9641 125.139 28.6248C126.041 29.2854 126.568 30.1851 126.718 31.3237ZM129.161 40.1699V27.7949H132.594V40.1699H129.161ZM130.885 26.1997C130.375 26.1997 129.938 26.0305 129.572 25.6921C129.212 25.3484 129.032 24.9375 129.032 24.4595C129.032 23.9868 129.212 23.5813 129.572 23.2429C129.938 22.8992 130.375 22.7273 130.885 22.7273C131.396 22.7273 131.831 22.8992 132.191 23.2429C132.556 23.5813 132.739 23.9868 132.739 24.4595C132.739 24.9375 132.556 25.3484 132.191 25.6921C131.831 26.0305 131.396 26.1997 130.885 26.1997ZM140.982 40.4116C139.71 40.4116 138.614 40.1538 137.695 39.6382C136.782 39.1172 136.079 38.3813 135.585 37.4307C135.09 36.4746 134.843 35.344 134.843 34.0388C134.843 32.7659 135.09 31.6487 135.585 30.6873C136.079 29.7258 136.774 28.9766 137.671 28.4395C138.574 27.9023 139.632 27.6338 140.846 27.6338C141.662 27.6338 142.422 27.7654 143.126 28.0286C143.835 28.2864 144.452 28.6758 144.979 29.1968C145.51 29.7178 145.924 30.373 146.219 31.1626C146.515 31.9468 146.662 32.8652 146.662 33.918V34.8606H136.213V32.7336H143.432C143.432 32.2395 143.324 31.8018 143.109 31.4204C142.895 31.0391 142.596 30.741 142.215 30.5261C141.839 30.3059 141.401 30.1958 140.902 30.1958C140.381 30.1958 139.919 30.3167 139.516 30.5583C139.119 30.7947 138.807 31.1143 138.582 31.5171C138.356 31.9146 138.241 32.3577 138.235 32.8464V34.8687C138.235 35.481 138.348 36.01 138.574 36.4558C138.805 36.9016 139.129 37.2454 139.548 37.4871C139.967 37.7288 140.464 37.8496 141.039 37.8496C141.42 37.8496 141.769 37.7959 142.086 37.6885C142.403 37.5811 142.674 37.4199 142.9 37.2051C143.126 36.9902 143.297 36.7271 143.416 36.4155L146.59 36.625C146.429 37.3877 146.098 38.0537 145.599 38.623C145.105 39.187 144.466 39.6274 143.681 39.9443C142.903 40.2559 142.003 40.4116 140.982 40.4116ZM159.199 31.3237L156.056 31.5171C156.003 31.2485 155.887 31.0068 155.71 30.792C155.533 30.5718 155.299 30.3972 155.009 30.2683C154.724 30.134 154.383 30.0669 153.986 30.0669C153.454 30.0669 153.006 30.1797 152.64 30.4053C152.275 30.6255 152.093 30.9209 152.093 31.2915C152.093 31.5869 152.211 31.8367 152.447 32.0408C152.683 32.2449 153.089 32.4087 153.664 32.5322L155.903 32.9834C157.107 33.2305 158.003 33.6279 158.594 34.1758C159.185 34.7236 159.481 35.4434 159.481 36.335C159.481 37.146 159.242 37.8577 158.763 38.47C158.291 39.0823 157.641 39.5603 156.814 39.9041C155.992 40.2424 155.044 40.4116 153.97 40.4116C152.332 40.4116 151.026 40.0706 150.054 39.3884C149.087 38.7009 148.521 37.7664 148.354 36.5847L151.73 36.4075C151.832 36.907 152.079 37.2883 152.471 37.5515C152.863 37.8093 153.366 37.9382 153.978 37.9382C154.579 37.9382 155.063 37.8228 155.428 37.5918C155.799 37.3555 155.987 37.052 155.992 36.6814C155.987 36.3699 155.855 36.1147 155.597 35.916C155.339 35.7119 154.942 35.5562 154.405 35.4487L152.262 35.0217C151.053 34.78 150.154 34.3611 149.563 33.7649C148.977 33.1687 148.685 32.4087 148.685 31.4849C148.685 30.6899 148.899 30.0051 149.329 29.4304C149.764 28.8557 150.374 28.4126 151.158 28.1011C151.948 27.7896 152.871 27.6338 153.93 27.6338C155.492 27.6338 156.722 27.9641 157.619 28.6248C158.522 29.2854 159.048 30.1851 159.199 31.3237ZM168.224 27.7949V30.373H160.772V27.7949H168.224ZM162.464 24.8301H165.896V36.3672C165.896 36.6841 165.944 36.9312 166.041 37.1084C166.137 37.2803 166.272 37.4011 166.443 37.4709C166.621 37.5408 166.825 37.5757 167.056 37.5757C167.217 37.5757 167.378 37.5623 167.539 37.5354C167.7 37.5032 167.824 37.479 167.91 37.4629L168.45 40.0168C168.278 40.0706 168.036 40.1323 167.724 40.2021C167.413 40.2773 167.034 40.323 166.589 40.3391C165.761 40.3713 165.036 40.2612 164.413 40.0088C163.796 39.7563 163.315 39.3643 162.971 38.8325C162.627 38.3008 162.458 37.6294 162.464 36.8184V24.8301ZM179.239 40.4036C178.45 40.4036 177.746 40.2666 177.129 39.9927C176.511 39.7134 176.022 39.3025 175.662 38.76C175.308 38.2122 175.131 37.53 175.131 36.7136C175.131 36.0261 175.257 35.4487 175.509 34.9814C175.762 34.5142 176.105 34.1382 176.54 33.8535C176.976 33.5688 177.47 33.354 178.023 33.209C178.581 33.064 179.167 32.9619 179.779 32.9028C180.499 32.8276 181.079 32.7578 181.519 32.6934C181.96 32.6235 182.279 32.5215 182.478 32.3872C182.677 32.2529 182.776 32.0542 182.776 31.791V31.7427C182.776 31.2324 182.615 30.8376 182.293 30.5583C181.976 30.2791 181.525 30.1394 180.939 30.1394C180.322 30.1394 179.83 30.2764 179.465 30.5503C179.1 30.8188 178.858 31.1572 178.74 31.5654L175.566 31.3076C175.727 30.5557 176.044 29.9058 176.516 29.3579C176.989 28.8047 177.599 28.3804 178.345 28.085C179.097 27.7842 179.967 27.6338 180.956 27.6338C181.643 27.6338 182.301 27.7144 182.929 27.8755C183.563 28.0366 184.124 28.2864 184.613 28.6248C185.107 28.9631 185.497 29.3982 185.781 29.9299C186.066 30.4563 186.208 31.0874 186.208 31.8232V40.1699H182.954V38.4539H182.857C182.658 38.8406 182.392 39.1816 182.059 39.4771C181.726 39.7671 181.326 39.9954 180.859 40.1619C180.392 40.323 179.852 40.4036 179.239 40.4036ZM180.222 38.0349C180.727 38.0349 181.173 37.9355 181.56 37.7368C181.946 37.5327 182.25 37.2588 182.47 36.915C182.69 36.5713 182.8 36.1819 182.8 35.7468V34.4336C182.693 34.5034 182.545 34.5679 182.357 34.627C182.175 34.6807 181.968 34.7317 181.737 34.78C181.506 34.823 181.275 34.8633 181.044 34.9009C180.813 34.9331 180.604 34.9626 180.416 34.9895C180.013 35.0486 179.661 35.1426 179.36 35.2715C179.06 35.4004 178.826 35.575 178.659 35.7952C178.493 36.01 178.41 36.2786 178.41 36.6008C178.41 37.0681 178.579 37.4253 178.917 37.6724C179.261 37.9141 179.696 38.0349 180.222 38.0349ZM193.431 40.3713C192.491 40.3713 191.64 40.1296 190.877 39.6462C190.12 39.1575 189.518 38.4404 189.073 37.4951C188.632 36.5444 188.412 35.3789 188.412 33.9985C188.412 32.5806 188.64 31.4016 189.097 30.4617C189.553 29.5164 190.16 28.8101 190.918 28.3428C191.68 27.8701 192.515 27.6338 193.423 27.6338C194.116 27.6338 194.693 27.752 195.155 27.9883C195.623 28.2192 195.999 28.5093 196.283 28.8584C196.573 29.2021 196.794 29.5405 196.944 29.8735H197.049V23.6699H200.473V40.1699H197.089V38.188H196.944C196.783 38.5317 196.555 38.8728 196.259 39.2112C195.969 39.5442 195.59 39.8208 195.123 40.041C194.661 40.2612 194.097 40.3713 193.431 40.3713ZM194.519 37.6401C195.072 37.6401 195.539 37.4897 195.921 37.189C196.307 36.8828 196.603 36.4558 196.807 35.908C197.016 35.3601 197.121 34.7183 197.121 33.9824C197.121 33.2466 197.019 32.6074 196.815 32.0649C196.611 31.5225 196.315 31.1035 195.929 30.8081C195.542 30.5127 195.072 30.365 194.519 30.365C193.955 30.365 193.48 30.5181 193.093 30.8242C192.706 31.1304 192.413 31.5547 192.215 32.0972C192.016 32.6396 191.917 33.2681 191.917 33.9824C191.917 34.7021 192.016 35.3386 192.215 35.8918C192.419 36.4397 192.711 36.8694 193.093 37.1809C193.48 37.4871 193.955 37.6401 194.519 37.6401ZM203.295 40.1699V27.7949H206.566V29.9783H206.711C206.968 29.2532 207.398 28.6812 208 28.2622C208.601 27.8433 209.321 27.6338 210.159 27.6338C211.007 27.6338 211.73 27.8459 212.326 28.2703C212.922 28.6892 213.32 29.2585 213.518 29.9783H213.647C213.9 29.2693 214.356 28.7026 215.017 28.2783C215.683 27.8486 216.47 27.6338 217.378 27.6338C218.532 27.6338 219.47 28.0017 220.189 28.7375C220.914 29.468 221.277 30.5046 221.277 31.8474V40.1699H217.853V32.5242C217.853 31.8367 217.67 31.321 217.305 30.9773C216.94 30.6335 216.483 30.4617 215.935 30.4617C215.312 30.4617 214.826 30.6604 214.477 31.0579C214.128 31.45 213.953 31.9683 213.953 32.6128V40.1699H210.626V32.4517C210.626 31.8447 210.452 31.3613 210.102 31.0015C209.759 30.6416 209.305 30.4617 208.741 30.4617C208.359 30.4617 208.016 30.5583 207.71 30.7517C207.409 30.9397 207.17 31.2056 206.993 31.5493C206.815 31.8877 206.727 32.2852 206.727 32.7417V40.1699H203.295ZM223.988 40.1699V27.7949H227.42V40.1699H223.988ZM225.712 26.1997C225.202 26.1997 224.764 26.0305 224.399 25.6921C224.039 25.3484 223.859 24.9375 223.859 24.4595C223.859 23.9868 224.039 23.5813 224.399 23.2429C224.764 22.8992 225.202 22.7273 225.712 22.7273C226.222 22.7273 226.657 22.8992 227.017 23.2429C227.383 23.5813 227.565 23.9868 227.565 24.4595C227.565 24.9375 227.383 25.3484 227.017 25.6921C226.657 26.0305 226.222 26.1997 225.712 26.1997ZM233.602 33.0156V40.1699H230.169V27.7949H233.44V29.9783H233.586C233.859 29.2585 234.319 28.6892 234.963 28.2703C235.608 27.8459 236.389 27.6338 237.308 27.6338C238.167 27.6338 238.916 27.8218 239.555 28.1978C240.195 28.5737 240.691 29.1108 241.046 29.8091C241.4 30.502 241.578 31.3291 241.578 32.2905V40.1699H238.146V32.9028C238.151 32.1455 237.958 31.5547 237.565 31.1304C237.173 30.7007 236.634 30.4858 235.946 30.4858C235.484 30.4858 235.076 30.5852 234.721 30.7839C234.372 30.9827 234.098 31.2727 233.9 31.6541C233.706 32.03 233.607 32.4839 233.602 33.0156Z" fill="#26422B"/>
<path d="M89.1586 65.1699V54.6245H95.698V55.9941H90.7496V59.2072H95.2294V60.5717H90.7496V65.1699H89.1586ZM99.8044 65.345C99.3032 65.345 98.8501 65.2523 98.445 65.0669C98.04 64.8781 97.719 64.6052 97.4822 64.2482C97.2487 63.8912 97.132 63.4535 97.132 62.9352C97.132 62.4889 97.2178 62.1216 97.3895 61.8333C97.5611 61.5449 97.7928 61.3166 98.0846 61.1484C98.3764 60.9802 98.7025 60.8532 99.0629 60.7674C99.4234 60.6816 99.7907 60.6164 100.165 60.5717C100.639 60.5168 101.023 60.4722 101.318 60.4379C101.613 60.4001 101.828 60.34 101.962 60.2576C102.096 60.1752 102.163 60.0414 102.163 59.856V59.82C102.163 59.3703 102.036 59.0218 101.782 58.7747C101.531 58.5275 101.157 58.4039 100.659 58.4039C100.141 58.4039 99.7323 58.5189 99.4337 58.7489C99.1385 58.9755 98.9342 59.2278 98.8209 59.5059L97.374 59.1763C97.5457 58.6957 97.7963 58.3078 98.1258 58.0126C98.4588 57.714 98.8415 57.4977 99.2741 57.3638C99.7066 57.2265 100.161 57.1578 100.639 57.1578C100.954 57.1578 101.289 57.1956 101.643 57.2711C102 57.3432 102.333 57.4771 102.642 57.6728C102.954 57.8684 103.21 58.1482 103.409 58.5121C103.608 58.8725 103.707 59.3411 103.707 59.9178V65.1699H102.204V64.0886H102.142C102.043 64.2877 101.893 64.4834 101.694 64.6756C101.495 64.8678 101.239 65.0275 100.927 65.1545C100.615 65.2815 100.24 65.345 99.8044 65.345ZM100.139 64.1092C100.565 64.1092 100.929 64.0251 101.231 63.8569C101.536 63.6887 101.768 63.469 101.926 63.1978C102.087 62.9232 102.168 62.6297 102.168 62.3173V61.2978C102.113 61.3527 102.007 61.4042 101.849 61.4522C101.694 61.4969 101.517 61.5363 101.318 61.5707C101.119 61.6016 100.925 61.6307 100.736 61.6582C100.548 61.6822 100.39 61.7028 100.263 61.72C99.964 61.7578 99.6911 61.8213 99.444 61.9105C99.2003 61.9998 99.0046 62.1285 98.857 62.2967C98.7128 62.4615 98.6407 62.6812 98.6407 62.9558C98.6407 63.3368 98.7815 63.6252 99.0629 63.8208C99.3444 64.0131 99.7032 64.1092 100.139 64.1092ZM107.298 54.6245V65.1699H105.758V54.6245H107.298ZM110.909 54.6245V65.1699H109.369V54.6245H110.909ZM116.797 65.1699V64.0165L120.365 60.3194C120.746 59.9178 121.06 59.5659 121.307 59.2638C121.558 58.9583 121.745 58.6683 121.869 58.3936C121.992 58.119 122.054 57.8272 122.054 57.5183C122.054 57.1681 121.972 56.8661 121.807 56.612C121.642 56.3546 121.417 56.1572 121.132 56.0199C120.847 55.8791 120.526 55.8088 120.169 55.8088C119.792 55.8088 119.462 55.886 119.181 56.0405C118.899 56.195 118.683 56.4129 118.532 56.6944C118.381 56.9759 118.305 57.3055 118.305 57.6831H116.786C116.786 57.0411 116.934 56.4799 117.229 55.9993C117.524 55.5187 117.929 55.1462 118.444 54.8819C118.959 54.6142 119.545 54.4803 120.2 54.4803C120.863 54.4803 121.446 54.6125 121.951 54.8768C122.459 55.1377 122.855 55.4947 123.14 55.9478C123.425 56.3975 123.568 56.9055 123.568 57.4719C123.568 57.8633 123.494 58.246 123.346 58.6202C123.202 58.9944 122.95 59.4115 122.589 59.8714C122.229 60.328 121.728 60.8824 121.086 61.5346L118.99 63.7282V63.8054H123.738V65.1699H116.797ZM129.361 65.345C128.547 65.3416 127.852 65.127 127.275 64.7013C126.698 64.2757 126.257 63.6561 125.952 62.8425C125.646 62.0289 125.494 61.0489 125.494 59.9023C125.494 58.7592 125.646 57.7826 125.952 56.9725C126.261 56.1623 126.704 55.5444 127.28 55.1188C127.86 54.6931 128.554 54.4803 129.361 54.4803C130.167 54.4803 130.859 54.6948 131.436 55.1239C132.012 55.5496 132.453 56.1675 132.759 56.9776C133.068 57.7843 133.222 58.7592 133.222 59.9023C133.222 61.0523 133.07 62.0341 132.764 62.8477C132.459 63.6578 132.017 64.2774 131.441 64.7065C130.864 65.1322 130.171 65.345 129.361 65.345ZM129.361 63.9702C130.075 63.9702 130.632 63.6217 131.034 62.9249C131.439 62.228 131.642 61.2205 131.642 59.9023C131.642 59.027 131.549 58.2872 131.364 57.6831C131.182 57.0755 130.919 56.6155 130.576 56.3031C130.236 55.9873 129.831 55.8294 129.361 55.8294C128.65 55.8294 128.092 56.1795 127.687 56.8798C127.282 57.5801 127.078 58.5876 127.074 59.9023C127.074 60.7811 127.165 61.5243 127.347 62.1319C127.533 62.7361 127.795 63.1944 128.135 63.5067C128.475 63.8157 128.883 63.9702 129.361 63.9702ZM135.049 65.1699V64.0165L138.617 60.3194C138.998 59.9178 139.313 59.5659 139.56 59.2638C139.81 58.9583 139.997 58.6683 140.121 58.3936C140.245 58.119 140.306 57.8272 140.306 57.5183C140.306 57.1681 140.224 56.8661 140.059 56.612C139.894 56.3546 139.67 56.1572 139.385 56.0199C139.1 55.8791 138.779 55.8088 138.422 55.8088C138.044 55.8088 137.715 55.886 137.433 56.0405C137.152 56.195 136.935 56.4129 136.784 56.6944C136.633 56.9759 136.558 57.3055 136.558 57.6831H135.039C135.039 57.0411 135.186 56.4799 135.482 55.9993C135.777 55.5187 136.182 55.1462 136.697 54.8819C137.212 54.6142 137.797 54.4803 138.453 54.4803C139.115 54.4803 139.699 54.6125 140.203 54.8768C140.711 55.1377 141.108 55.4947 141.393 55.9478C141.678 56.3975 141.82 56.9055 141.82 57.4719C141.82 57.8633 141.746 58.246 141.599 58.6202C141.455 58.9944 141.202 59.4115 140.842 59.8714C140.481 60.328 139.98 60.8824 139.338 61.5346L137.243 63.7282V63.8054H141.99V65.1699H135.049ZM147.613 65.3141C146.906 65.3141 146.274 65.1922 145.718 64.9485C145.165 64.7048 144.728 64.3667 144.405 63.9341C144.086 63.4982 143.914 62.9935 143.89 62.4203H145.507C145.528 62.7327 145.632 63.0038 145.821 63.2338C146.013 63.4604 146.264 63.6355 146.573 63.7591C146.882 63.8826 147.225 63.9444 147.603 63.9444C148.018 63.9444 148.385 63.8723 148.705 63.7282C149.027 63.584 149.28 63.3832 149.462 63.1257C149.643 62.8648 149.734 62.5645 149.734 62.2246C149.734 61.871 149.643 61.5604 149.462 61.2926C149.283 61.0214 149.02 60.8086 148.674 60.6541C148.33 60.4996 147.915 60.4224 147.428 60.4224H146.537V59.1248H147.428C147.819 59.1248 148.162 59.0545 148.457 58.9137C148.756 58.773 148.99 58.5773 149.158 58.3267C149.326 58.0727 149.41 57.7757 149.41 57.4359C149.41 57.1098 149.336 56.8266 149.189 56.5863C149.044 56.3426 148.838 56.152 148.571 56.0147C148.306 55.8774 147.994 55.8088 147.634 55.8088C147.29 55.8088 146.969 55.8723 146.671 55.9993C146.375 56.1229 146.135 56.3014 145.95 56.5348C145.764 56.7648 145.665 57.0411 145.651 57.3638H144.112C144.129 56.794 144.297 56.2928 144.616 55.8603C144.939 55.4277 145.365 55.0896 145.893 54.8459C146.422 54.6022 147.009 54.4803 147.654 54.4803C148.33 54.4803 148.914 54.6125 149.405 54.8768C149.899 55.1377 150.28 55.4861 150.548 55.9221C150.819 56.358 150.953 56.8352 150.95 57.3535C150.953 57.944 150.788 58.4451 150.455 58.8571C150.126 59.269 149.686 59.5453 149.137 59.6861V59.7685C149.837 59.8749 150.38 60.1529 150.764 60.6026C151.152 61.0523 151.344 61.6101 151.341 62.2761C151.344 62.8562 151.183 63.3763 150.857 63.8363C150.534 64.2963 150.093 64.6584 149.534 64.9228C148.974 65.1837 148.334 65.3141 147.613 65.3141Z" fill="#26422B"/>
<defs>
<clipPath id="clip0_238_2085">
<rect width="32" height="32" fill="white" transform="translate(32 28.1699)"/>
</clipPath>
<clipPath id="clip1_238_2085">
<rect width="32" height="32" fill="white" transform="translate(32 28.1699)"/>
</clipPath>
</defs>
</svg>
