<svg width="258" height="89" viewBox="0 0 258 89" fill="none" xmlns="http://www.w3.org/2000/svg">
<rect x="0.200195" y="0.169922" width="257.3" height="88" rx="8" fill="#CAF1B1"/>
<rect x="24.2002" y="20.1699" width="48" height="48" rx="24" fill="white"/>
<g clip-path="url(#clip0_238_2069)">
<g clip-path="url(#clip1_238_2069)">
<path d="M49.3641 50.0949V52.5099H55.1822V54.8523H41.2186V52.5099H47.0368V50.0949C42.4447 49.5185 38.8913 45.5756 38.8913 40.7975V33.77H57.5095V40.7975C57.5095 45.5756 53.9561 49.5185 49.3641 50.0949ZM41.2186 36.1125V40.7975C41.2186 44.6786 44.3444 47.8249 48.2004 47.8249C52.0563 47.8249 55.1822 44.6786 55.1822 40.7975V36.1125H41.2186ZM35.4004 36.1125H37.7277V40.7975H35.4004V36.1125ZM58.6731 36.1125H61.0004V40.7975H58.6731V36.1125Z" fill="#273F2B"/>
</g>
</g>
<path d="M89.6461 40.1699V23.5336H96.3072C97.5311 23.5336 98.5519 23.715 99.3696 24.0778C100.187 24.4407 100.802 24.9443 101.214 25.5887C101.625 26.2278 101.831 26.9643 101.831 27.7983C101.831 28.4481 101.701 29.0194 101.441 29.5123C101.181 29.9996 100.824 30.4004 100.369 30.7145C99.9193 31.0232 99.4048 31.2425 98.8254 31.3725V31.5349C99.459 31.562 100.052 31.7407 100.604 32.0711C101.162 32.4014 101.614 32.8644 101.961 33.4601C102.308 34.0504 102.481 34.7544 102.481 35.5722C102.481 36.4549 102.261 37.2429 101.823 37.936C101.39 38.6238 100.748 39.1681 99.8976 39.5688C99.0474 39.9695 97.9995 40.1699 96.754 40.1699H89.6461ZM93.1635 37.2943H96.031C97.0112 37.2943 97.726 37.1075 98.1755 36.7338C98.625 36.3547 98.8497 35.8511 98.8497 35.2229C98.8497 34.7626 98.7387 34.3564 98.5167 34.0044C98.2947 33.6524 97.9779 33.3762 97.5663 33.1758C97.1601 32.9755 96.6754 32.8753 96.1122 32.8753H93.1635V37.2943ZM93.1635 30.4952H95.771C96.253 30.4952 96.6808 30.4112 97.0545 30.2433C97.4336 30.07 97.7314 29.8263 97.9481 29.5123C98.1701 29.1982 98.2811 28.8218 98.2811 28.3831C98.2811 27.782 98.0672 27.2973 97.6394 26.9291C97.217 26.5608 96.6159 26.3767 95.836 26.3767H93.1635V30.4952ZM110.391 40.4136C109.107 40.4136 108.003 40.1537 107.077 39.6338C106.156 39.1085 105.446 38.3666 104.948 37.408C104.45 36.4441 104.201 35.3041 104.201 33.9881C104.201 32.7047 104.45 31.5783 104.948 30.6089C105.446 29.6395 106.148 28.8841 107.052 28.3425C107.962 27.801 109.029 27.5302 110.253 27.5302C111.076 27.5302 111.842 27.6629 112.552 27.9282C113.266 28.1882 113.889 28.5808 114.42 29.1061C114.956 29.6314 115.373 30.2921 115.671 31.0882C115.969 31.8788 116.118 32.8049 116.118 33.8663V34.8167H105.582V32.6722H112.86C112.86 32.174 112.752 31.7326 112.535 31.3481C112.319 30.9636 112.018 30.663 111.634 30.4464C111.255 30.2244 110.813 30.1134 110.31 30.1134C109.784 30.1134 109.319 30.2352 108.912 30.4789C108.512 30.7172 108.198 31.0394 107.97 31.4456C107.743 31.8463 107.626 32.2931 107.621 32.7859V34.8248C107.621 35.4422 107.735 35.9756 107.962 36.4251C108.195 36.8746 108.522 37.2212 108.945 37.4649C109.367 37.7086 109.868 37.8304 110.448 37.8304C110.832 37.8304 111.184 37.7763 111.504 37.668C111.823 37.5597 112.097 37.3972 112.324 37.1806C112.552 36.964 112.725 36.6986 112.844 36.3845L116.045 36.5957C115.882 37.3647 115.549 38.0362 115.045 38.6103C114.547 39.1789 113.903 39.623 113.112 39.9425C112.327 40.2566 111.42 40.4136 110.391 40.4136ZM128.757 31.2506L125.589 31.4456C125.535 31.1748 125.419 30.9311 125.24 30.7145C125.061 30.4925 124.826 30.3165 124.533 30.1865C124.246 30.0511 123.902 29.9834 123.502 29.9834C122.966 29.9834 122.513 30.0971 122.145 30.3246C121.777 30.5466 121.593 30.8445 121.593 31.2181C121.593 31.516 121.712 31.7678 121.95 31.9736C122.188 32.1794 122.597 32.3445 123.177 32.4691L125.435 32.924C126.648 33.1731 127.552 33.5739 128.148 34.1262C128.744 34.6786 129.042 35.4043 129.042 36.3033C129.042 37.121 128.801 37.8386 128.319 38.4559C127.842 39.0733 127.187 39.5553 126.353 39.9019C125.524 40.243 124.569 40.4136 123.485 40.4136C121.834 40.4136 120.518 40.0697 119.538 39.382C118.563 38.6888 117.991 37.7465 117.824 36.5551L121.227 36.3764C121.33 36.88 121.579 37.2645 121.975 37.5299C122.37 37.7898 122.876 37.9198 123.494 37.9198C124.1 37.9198 124.588 37.8034 124.956 37.5705C125.329 37.3322 125.519 37.0262 125.524 36.6526C125.519 36.3385 125.386 36.0812 125.126 35.8809C124.866 35.6751 124.466 35.518 123.924 35.4097L121.763 34.9792C120.545 34.7355 119.638 34.3131 119.042 33.712C118.452 33.1108 118.157 32.3445 118.157 31.4131C118.157 30.6116 118.373 29.9211 118.806 29.3417C119.245 28.7622 119.86 28.3154 120.65 28.0013C121.447 27.6872 122.378 27.5302 123.445 27.5302C125.021 27.5302 126.261 27.8632 127.165 28.5293C128.075 29.1954 128.606 30.1025 128.757 31.2506ZM137.857 27.6926V30.2921H130.343V27.6926H137.857ZM132.049 24.7033H135.51V36.3358C135.51 36.6553 135.559 36.9044 135.656 37.0831C135.754 37.2564 135.889 37.3782 136.062 37.4486C136.241 37.519 136.447 37.5542 136.68 37.5542C136.842 37.5542 137.005 37.5407 137.167 37.5136C137.329 37.4811 137.454 37.4568 137.541 37.4405L138.085 40.0156C137.912 40.0697 137.668 40.132 137.354 40.2024C137.04 40.2782 136.658 40.3243 136.208 40.3405C135.374 40.373 134.643 40.262 134.015 40.0075C133.392 39.7529 132.908 39.3576 132.561 38.8215C132.215 38.2853 132.044 37.6084 132.049 36.7907V24.7033ZM155.787 31.2506L152.619 31.4456C152.565 31.1748 152.449 30.9311 152.27 30.7145C152.091 30.4925 151.856 30.3165 151.563 30.1865C151.276 30.0511 150.932 29.9834 150.532 29.9834C149.996 29.9834 149.543 30.0971 149.175 30.3246C148.807 30.5466 148.623 30.8445 148.623 31.2181C148.623 31.516 148.742 31.7678 148.98 31.9736C149.218 32.1794 149.627 32.3445 150.207 32.4691L152.465 32.924C153.678 33.1731 154.583 33.5739 155.178 34.1262C155.774 34.6786 156.072 35.4043 156.072 36.3033C156.072 37.121 155.831 37.8386 155.349 38.4559C154.872 39.0733 154.217 39.5553 153.383 39.9019C152.554 40.243 151.599 40.4136 150.515 40.4136C148.864 40.4136 147.548 40.0697 146.568 39.382C145.593 38.6888 145.021 37.7465 144.854 36.5551L148.257 36.3764C148.36 36.88 148.609 37.2645 149.005 37.5299C149.4 37.7898 149.906 37.9198 150.524 37.9198C151.13 37.9198 151.618 37.8034 151.986 37.5705C152.359 37.3322 152.549 37.0262 152.554 36.6526C152.549 36.3385 152.416 36.0812 152.156 35.8809C151.896 35.6751 151.496 35.518 150.954 35.4097L148.793 34.9792C147.575 34.7355 146.668 34.3131 146.072 33.712C145.482 33.1108 145.187 32.3445 145.187 31.4131C145.187 30.6116 145.403 29.9211 145.837 29.3417C146.275 28.7622 146.89 28.3154 147.68 28.0013C148.477 27.6872 149.408 27.5302 150.475 27.5302C152.051 27.5302 153.291 27.8632 154.195 28.5293C155.105 29.1954 155.636 30.1025 155.787 31.2506ZM166.252 34.8573V27.6926H169.713V40.1699H166.39V37.9035H166.26C165.979 38.6346 165.51 39.2222 164.855 39.6663C164.205 40.1104 163.412 40.3324 162.475 40.3324C161.641 40.3324 160.907 40.1428 160.274 39.7638C159.64 39.3847 159.144 38.8458 158.787 38.1472C158.435 37.4486 158.256 36.6119 158.251 35.6372V27.6926H161.711V35.0198C161.717 35.7563 161.914 36.3385 162.304 36.7663C162.694 37.1941 163.217 37.408 163.872 37.408C164.289 37.408 164.679 37.3133 165.042 37.1237C165.405 36.9288 165.697 36.6417 165.919 36.2627C166.147 35.8836 166.258 35.4151 166.252 34.8573ZM172.481 44.8489V27.6926H175.892V29.7884H176.047C176.198 29.4527 176.418 29.1115 176.705 28.7649C176.997 28.4129 177.376 28.1205 177.842 27.8876C178.313 27.6493 178.898 27.5302 179.597 27.5302C180.506 27.5302 181.346 27.7685 182.115 28.245C182.884 28.7162 183.498 29.4283 183.959 30.3814C184.419 31.3291 184.649 32.5178 184.649 33.9475C184.649 35.3393 184.425 36.5145 183.975 37.473C183.531 38.4261 182.924 39.1491 182.155 39.6419C181.392 40.1293 180.536 40.373 179.589 40.373C178.917 40.373 178.346 40.262 177.875 40.04C177.409 39.8179 177.027 39.539 176.729 39.2033C176.431 38.8621 176.204 38.5182 176.047 38.1716H175.941V44.8489H172.481ZM175.868 33.9313C175.868 34.6732 175.971 35.3204 176.177 35.8727C176.383 36.4251 176.68 36.8556 177.07 37.1643C177.46 37.4676 177.934 37.6192 178.492 37.6192C179.055 37.6192 179.532 37.4649 179.922 37.1562C180.311 36.8421 180.607 36.4089 180.807 35.8565C181.013 35.2987 181.116 34.657 181.116 33.9313C181.116 33.211 181.015 32.5774 180.815 32.0305C180.615 31.4835 180.32 31.0557 179.93 30.747C179.54 30.4383 179.06 30.284 178.492 30.284C177.929 30.284 177.452 30.4329 177.062 30.7307C176.678 31.0286 176.383 31.451 176.177 31.998C175.971 32.5449 175.868 33.1894 175.868 33.9313ZM186.956 44.8489V27.6926H190.368V29.7884H190.522C190.674 29.4527 190.893 29.1115 191.18 28.7649C191.473 28.4129 191.852 28.1205 192.318 27.8876C192.789 27.6493 193.374 27.5302 194.072 27.5302C194.982 27.5302 195.821 27.7685 196.59 28.245C197.359 28.7162 197.974 29.4283 198.434 30.3814C198.895 31.3291 199.125 32.5178 199.125 33.9475C199.125 35.3393 198.9 36.5145 198.451 37.473C198.007 38.4261 197.4 39.1491 196.631 39.6419C195.867 40.1293 195.012 40.373 194.064 40.373C193.393 40.373 192.821 40.262 192.35 40.04C191.884 39.8179 191.503 39.539 191.205 39.2033C190.907 38.8621 190.679 38.5182 190.522 38.1716H190.417V44.8489H186.956ZM190.344 33.9313C190.344 34.6732 190.447 35.3204 190.652 35.8727C190.858 36.4251 191.156 36.8556 191.546 37.1643C191.936 37.4676 192.41 37.6192 192.967 37.6192C193.531 37.6192 194.007 37.4649 194.397 37.1562C194.787 36.8421 195.082 36.4089 195.283 35.8565C195.488 35.2987 195.591 34.657 195.591 33.9313C195.591 33.211 195.491 32.5774 195.291 32.0305C195.09 31.4835 194.795 31.0557 194.405 30.747C194.015 30.4383 193.536 30.284 192.967 30.284C192.404 30.284 191.928 30.4329 191.538 30.7307C191.153 31.0286 190.858 31.451 190.652 31.998C190.447 32.5449 190.344 33.1894 190.344 33.9313ZM207.069 40.4136C205.808 40.4136 204.716 40.1456 203.796 39.6094C202.88 39.0679 202.174 38.3151 201.676 37.3512C201.177 36.3818 200.928 35.2581 200.928 33.98C200.928 32.6911 201.177 31.5647 201.676 30.6008C202.174 29.6314 202.88 28.8786 203.796 28.3425C204.716 27.801 205.808 27.5302 207.069 27.5302C208.331 27.5302 209.42 27.801 210.335 28.3425C211.256 28.8786 211.965 29.6314 212.463 30.6008C212.961 31.5647 213.211 32.6911 213.211 33.98C213.211 35.2581 212.961 36.3818 212.463 37.3512C211.965 38.3151 211.256 39.0679 210.335 39.6094C209.42 40.1456 208.331 40.4136 207.069 40.4136ZM207.086 37.733C207.66 37.733 208.139 37.5705 208.523 37.2456C208.908 36.9152 209.198 36.4657 209.393 35.8971C209.593 35.3285 209.693 34.6813 209.693 33.9557C209.693 33.23 209.593 32.5828 209.393 32.0142C209.198 31.4456 208.908 30.9961 208.523 30.6657C208.139 30.3354 207.66 30.1702 207.086 30.1702C206.506 30.1702 206.019 30.3354 205.623 30.6657C205.234 30.9961 204.938 31.4456 204.738 32.0142C204.543 32.5828 204.446 33.23 204.446 33.9557C204.446 34.6813 204.543 35.3285 204.738 35.8971C204.938 36.4657 205.234 36.9152 205.623 37.2456C206.019 37.5705 206.506 37.733 207.086 37.733ZM215.461 40.1699V27.6926H218.816V29.8697H218.946C219.173 29.0953 219.555 28.5104 220.091 28.1151C220.627 27.7143 221.244 27.5139 221.943 27.5139C222.116 27.5139 222.303 27.5248 222.503 27.5464C222.704 27.5681 222.88 27.5979 223.032 27.6358V30.7064C222.869 30.6576 222.644 30.6143 222.357 30.5764C222.07 30.5385 221.808 30.5195 221.569 30.5195C221.06 30.5195 220.605 30.6305 220.205 30.8526C219.809 31.0692 219.495 31.3725 219.262 31.7624C219.035 32.1523 218.921 32.6018 218.921 33.1108V40.1699H215.461ZM232.083 27.6926V30.2921H224.569V27.6926H232.083ZM226.275 24.7033H229.735V36.3358C229.735 36.6553 229.784 36.9044 229.881 37.0831C229.979 37.2564 230.114 37.3782 230.288 37.4486C230.466 37.519 230.672 37.5542 230.905 37.5542C231.067 37.5542 231.23 37.5407 231.392 37.5136C231.555 37.4811 231.679 37.4568 231.766 37.4405L232.31 40.0156C232.137 40.0697 231.893 40.132 231.579 40.2024C231.265 40.2782 230.883 40.3243 230.434 40.3405C229.6 40.373 228.869 40.262 228.241 40.0075C227.618 39.7529 227.133 39.3576 226.786 38.8215C226.44 38.2853 226.269 37.6084 226.275 36.7907V24.7033Z" fill="#26422B"/>
<path d="M91.5347 65.1699L88.5091 54.2608H90.2403L92.3657 62.709H92.4669L94.6775 54.2608H96.3927L98.6032 62.7143H98.7045L100.824 54.2608H102.561L99.5301 65.1699H97.8735L95.5777 56.9988H95.4925L93.1966 65.1699H91.5347ZM103.934 65.1699V56.9881H105.527V65.1699H103.934ZM104.738 55.7257C104.461 55.7257 104.223 55.6333 104.025 55.4487C103.829 55.2605 103.732 55.0368 103.732 54.7775C103.732 54.5147 103.829 54.291 104.025 54.1064C104.223 53.9181 104.461 53.824 104.738 53.824C105.015 53.824 105.251 53.9181 105.447 54.1064C105.646 54.291 105.745 54.5147 105.745 54.7775C105.745 55.0368 105.646 55.2605 105.447 55.4487C105.251 55.6333 105.015 55.7257 104.738 55.7257ZM109.262 60.312V65.1699H107.669V56.9881H109.198V58.3198H109.299C109.487 57.8865 109.782 57.5385 110.184 57.2757C110.588 57.013 111.098 56.8816 111.712 56.8816C112.27 56.8816 112.758 56.9988 113.177 57.2331C113.596 57.464 113.921 57.8084 114.152 58.2665C114.383 58.7246 114.498 59.291 114.498 59.9657V65.1699H112.905V60.1575C112.905 59.5645 112.751 59.101 112.442 58.7672C112.133 58.4299 111.709 58.2612 111.169 58.2612C110.8 58.2612 110.471 58.3411 110.184 58.5009C109.899 58.6607 109.674 58.8951 109.507 59.204C109.344 59.5094 109.262 59.8787 109.262 60.312ZM120.453 56.9881V58.2665H115.984V56.9881H120.453ZM117.183 55.0279H118.775V62.7676C118.775 63.0765 118.822 63.3091 118.914 63.4654C119.006 63.6181 119.125 63.7228 119.271 63.7797C119.42 63.8329 119.582 63.8596 119.756 63.8596C119.883 63.8596 119.995 63.8507 120.091 63.8329C120.187 63.8152 120.262 63.801 120.315 63.7903L120.603 65.106C120.51 65.1415 120.379 65.177 120.208 65.2125C120.038 65.2516 119.825 65.2729 119.569 65.2765C119.15 65.2836 118.759 65.209 118.397 65.0527C118.035 64.8965 117.742 64.655 117.518 64.3283C117.295 64.0016 117.183 63.5914 117.183 63.0978V55.0279ZM125.654 65.335C124.847 65.335 124.153 65.1628 123.571 64.8184C122.992 64.4703 122.545 63.9821 122.229 63.3535C121.916 62.7214 121.76 61.981 121.76 61.1323C121.76 60.2942 121.916 59.5556 122.229 58.9164C122.545 58.2772 122.985 57.7782 123.55 57.4196C124.118 57.0609 124.782 56.8816 125.542 56.8816C126.003 56.8816 126.451 56.9579 126.884 57.1106C127.317 57.2633 127.706 57.503 128.051 57.8297C128.395 58.1564 128.667 58.5808 128.866 59.1028C129.064 59.6213 129.164 60.2516 129.164 60.9938V61.5584H122.66V60.3652H127.603C127.603 59.9462 127.518 59.5751 127.347 59.252C127.177 58.9252 126.937 58.6678 126.628 58.4796C126.323 58.2914 125.964 58.1973 125.552 58.1973C125.105 58.1973 124.714 58.3074 124.381 58.5275C124.05 58.7441 123.795 59.0282 123.613 59.3798C123.436 59.7278 123.347 60.106 123.347 60.5144V61.4466C123.347 61.9934 123.443 62.4586 123.635 62.8422C123.83 63.2257 124.102 63.5186 124.45 63.7211C124.798 63.9199 125.204 64.0194 125.67 64.0194C125.971 64.0194 126.247 63.9767 126.495 63.8915C126.744 63.8027 126.959 63.6713 127.14 63.4973C127.321 63.3233 127.459 63.1085 127.555 62.8528L129.063 63.1245C128.942 63.5684 128.725 63.9572 128.413 64.291C128.104 64.6213 127.715 64.8787 127.246 65.0634C126.781 65.2445 126.25 65.335 125.654 65.335ZM130.931 65.1699V56.9881H132.47V58.2878H132.556C132.705 57.8475 132.968 57.5012 133.344 57.2491C133.724 56.9934 134.154 56.8656 134.633 56.8656C134.733 56.8656 134.85 56.8691 134.985 56.8762C135.123 56.8833 135.231 56.8922 135.31 56.9029V58.4263C135.246 58.4086 135.132 58.389 134.969 58.3677C134.805 58.3429 134.642 58.3304 134.479 58.3304C134.102 58.3304 133.767 58.4103 133.472 58.5701C133.181 58.7264 132.95 58.9448 132.779 59.2253C132.609 59.5023 132.524 59.8184 132.524 60.1735V65.1699H130.931ZM140.636 65.1699V63.9767L144.328 60.1522C144.722 59.7367 145.047 59.3727 145.302 59.0602C145.562 58.7441 145.755 58.4441 145.883 58.16C146.011 57.8759 146.075 57.574 146.075 57.2544C146.075 56.8922 145.99 56.5797 145.819 56.3169C145.649 56.0506 145.416 55.8464 145.121 55.7044C144.827 55.5588 144.495 55.486 144.125 55.486C143.735 55.486 143.394 55.5659 143.103 55.7257C142.811 55.8855 142.588 56.111 142.431 56.4022C142.275 56.6934 142.197 57.0343 142.197 57.4249H140.626C140.626 56.7608 140.778 56.1802 141.084 55.6831C141.389 55.1859 141.808 54.8006 142.341 54.5272C142.873 54.2502 143.479 54.1117 144.157 54.1117C144.843 54.1117 145.446 54.2484 145.968 54.5218C146.494 54.7917 146.904 55.161 147.199 55.6298C147.494 56.095 147.641 56.6206 147.641 57.2065C147.641 57.6113 147.565 58.0073 147.412 58.3944C147.263 58.7814 147.002 59.2129 146.629 59.6887C146.256 60.161 145.737 60.7346 145.073 61.4093L142.905 63.6784V63.7583H147.817V65.1699H140.636ZM153.633 65.351C152.792 65.3475 152.073 65.1255 151.476 64.6852C150.88 64.2449 150.423 63.6039 150.107 62.7623C149.791 61.9206 149.633 60.9068 149.633 59.7207C149.633 58.5382 149.791 57.5279 150.107 56.6898C150.427 55.8517 150.885 55.2125 151.481 54.7722C152.082 54.3319 152.799 54.1117 153.633 54.1117C154.468 54.1117 155.184 54.3336 155.78 54.7775C156.377 55.2179 156.833 55.8571 157.149 56.6951C157.469 57.5297 157.628 58.5382 157.628 59.7207C157.628 60.9103 157.47 61.926 157.154 62.7676C156.838 63.6056 156.382 64.2466 155.785 64.6905C155.189 65.1309 154.472 65.351 153.633 65.351ZM153.633 63.9288C154.372 63.9288 154.949 63.5684 155.365 62.8475C155.784 62.1266 155.993 61.0843 155.993 59.7207C155.993 58.8152 155.897 58.0499 155.706 57.4249C155.517 56.7963 155.246 56.3205 154.891 55.9973C154.539 55.6706 154.12 55.5073 153.633 55.5073C152.898 55.5073 152.321 55.8695 151.902 56.5939C151.483 57.3184 151.272 58.3606 151.268 59.7207C151.268 60.6298 151.362 61.3986 151.551 62.0272C151.742 62.6522 152.014 63.1262 152.366 63.4494C152.717 63.769 153.14 63.9288 153.633 63.9288ZM159.518 65.1699V63.9767L163.21 60.1522C163.604 59.7367 163.929 59.3727 164.184 59.0602C164.444 58.7441 164.637 58.4441 164.765 58.16C164.893 57.8759 164.957 57.574 164.957 57.2544C164.957 56.8922 164.871 56.5797 164.701 56.3169C164.531 56.0506 164.298 55.8464 164.003 55.7044C163.708 55.5588 163.376 55.486 163.007 55.486C162.616 55.486 162.276 55.5659 161.984 55.7257C161.693 55.8855 161.469 56.111 161.313 56.4022C161.157 56.6934 161.079 57.0343 161.079 57.4249H159.507C159.507 56.7608 159.66 56.1802 159.966 55.6831C160.271 55.1859 160.69 54.8006 161.223 54.5272C161.755 54.2502 162.361 54.1117 163.039 54.1117C163.724 54.1117 164.328 54.2484 164.85 54.5218C165.376 54.7917 165.786 55.161 166.081 55.6298C166.375 56.095 166.523 56.6206 166.523 57.2065C166.523 57.6113 166.446 58.0073 166.294 58.3944C166.145 58.7814 165.884 59.2129 165.511 59.6887C165.138 60.161 164.619 60.7346 163.955 61.4093L161.787 63.6784V63.7583H166.699V65.1699H159.518ZM172.515 65.3191C171.784 65.3191 171.13 65.193 170.555 64.9409C169.983 64.6887 169.531 64.339 169.197 63.8915C168.866 63.4405 168.689 62.9185 168.664 62.3255H170.337C170.358 62.6486 170.466 62.9292 170.662 63.1671C170.86 63.4015 171.12 63.5826 171.439 63.7104C171.759 63.8382 172.114 63.9022 172.505 63.9022C172.934 63.9022 173.314 63.8276 173.645 63.6784C173.978 63.5293 174.239 63.3216 174.428 63.0552C174.616 62.7853 174.71 62.4746 174.71 62.123C174.71 61.7573 174.616 61.4359 174.428 61.1589C174.243 60.8784 173.971 60.6582 173.613 60.4984C173.257 60.3386 172.828 60.2587 172.324 60.2587H171.402V58.9164H172.324C172.728 58.9164 173.083 58.8436 173.389 58.698C173.698 58.5524 173.939 58.35 174.113 58.0907C174.287 57.8279 174.374 57.5208 174.374 57.1692C174.374 56.8319 174.298 56.5389 174.145 56.2903C173.996 56.0382 173.783 55.8411 173.506 55.699C173.233 55.557 172.909 55.486 172.537 55.486C172.181 55.486 171.849 55.5517 171.54 55.6831C171.235 55.8109 170.987 55.9956 170.795 56.237C170.603 56.475 170.5 56.7608 170.486 57.0946H168.893C168.911 56.5051 169.085 55.9867 169.415 55.5392C169.749 55.0918 170.189 54.742 170.736 54.4899C171.283 54.2377 171.89 54.1117 172.558 54.1117C173.257 54.1117 173.861 54.2484 174.369 54.5218C174.88 54.7917 175.275 55.1522 175.551 55.6032C175.832 56.0542 175.971 56.5478 175.967 57.084C175.971 57.6948 175.8 58.2132 175.456 58.6394C175.115 59.0655 174.66 59.3514 174.092 59.497V59.5822C174.816 59.6923 175.377 59.9799 175.775 60.4451C176.176 60.9103 176.375 61.4874 176.372 62.1763C176.375 62.7765 176.208 63.3145 175.871 63.7903C175.537 64.2662 175.081 64.6408 174.502 64.9142C173.923 65.1841 173.261 65.3191 172.515 65.3191Z" fill="#26422B"/>
<defs>
<clipPath id="clip0_238_2069">
<rect width="32" height="32" fill="white" transform="translate(32.2002 28.1699)"/>
</clipPath>
<clipPath id="clip1_238_2069">
<rect width="32" height="32" fill="white" transform="translate(32.2002 28.1699)"/>
</clipPath>
</defs>
</svg>
