<svg width="262" height="89" viewBox="0 0 262 89" fill="none" xmlns="http://www.w3.org/2000/svg">
<rect x="0.5" y="0.169922" width="261.22" height="88" rx="8" fill="#CAF1B1"/>
<rect x="24.5" y="20.1699" width="48" height="48" rx="24" fill="white"/>
<g clip-path="url(#clip0_238_2078)">
<g clip-path="url(#clip1_238_2078)">
<path d="M49.6639 50.0949V52.5099H55.482V54.8523H41.5184V52.5099H47.3366V50.0949C42.7445 49.5185 39.1911 45.5756 39.1911 40.7975V33.77H57.8093V40.7975C57.8093 45.5756 54.2559 49.5185 49.6639 50.0949ZM41.5184 36.1125V40.7975C41.5184 44.6786 44.6442 47.8249 48.5002 47.8249C52.3561 47.8249 55.482 44.6786 55.482 40.7975V36.1125H41.5184ZM35.7002 36.1125H38.0275V40.7975H35.7002V36.1125ZM58.9729 36.1125H61.3002V40.7975H58.9729V36.1125Z" fill="#273F2B"/>
</g>
</g>
<path d="M100.126 35.6699H103.614V46.3853C103.614 47.5884 103.327 48.6411 102.752 49.5435C102.183 50.4458 101.385 51.1494 100.359 51.6543C99.3335 52.1538 98.1384 52.4036 96.7742 52.4036C95.4045 52.4036 94.2068 52.1538 93.1809 51.6543C92.155 51.1494 91.3574 50.4458 90.7881 49.5435C90.2187 48.6411 89.9341 47.5884 89.9341 46.3853V35.6699H93.4226V46.0872C93.4226 46.7156 93.5596 47.2742 93.8335 47.7629C94.1128 48.2517 94.5049 48.6357 95.0098 48.915C95.5146 49.1943 96.1028 49.334 96.7742 49.334C97.4509 49.334 98.0391 49.1943 98.5386 48.915C99.0435 48.6357 99.4329 48.2517 99.7068 47.7629C99.9861 47.2742 100.126 46.7156 100.126 46.0872V35.6699ZM116.716 43.3237L113.574 43.5171C113.521 43.2485 113.405 43.0068 113.228 42.792C113.051 42.5718 112.817 42.3972 112.527 42.2683C112.242 42.134 111.901 42.0669 111.504 42.0669C110.972 42.0669 110.523 42.1797 110.158 42.4053C109.793 42.6255 109.61 42.9209 109.61 43.2915C109.61 43.5869 109.729 43.8367 109.965 44.0408C110.201 44.2449 110.607 44.4087 111.181 44.5322L113.421 44.9834C114.624 45.2305 115.521 45.6279 116.112 46.1758C116.703 46.7236 116.998 47.4434 116.998 48.335C116.998 49.146 116.759 49.8577 116.281 50.47C115.809 51.0823 115.159 51.5603 114.332 51.9041C113.51 52.2424 112.562 52.4116 111.488 52.4116C109.849 52.4116 108.544 52.0706 107.572 51.3884C106.605 50.7009 106.039 49.7664 105.872 48.5847L109.248 48.4075C109.35 48.907 109.597 49.2883 109.989 49.5515C110.381 49.8093 110.883 49.9382 111.496 49.9382C112.097 49.9382 112.581 49.8228 112.946 49.5918C113.316 49.3555 113.504 49.052 113.51 48.6814C113.504 48.3699 113.373 48.1147 113.115 47.916C112.857 47.7119 112.46 47.5562 111.923 47.4487L109.78 47.0217C108.571 46.78 107.671 46.3611 107.081 45.7649C106.495 45.1687 106.202 44.4087 106.202 43.4849C106.202 42.6899 106.417 42.0051 106.847 41.4304C107.282 40.8557 107.892 40.4126 108.676 40.1011C109.465 39.7896 110.389 39.6338 111.447 39.6338C113.01 39.6338 114.24 39.9641 115.137 40.6248C116.04 41.2854 116.566 42.1851 116.716 43.3237ZM124.799 52.4116C123.526 52.4116 122.431 52.1538 121.512 51.6382C120.599 51.1172 119.895 50.3813 119.401 49.4307C118.907 48.4746 118.66 47.344 118.66 46.0388C118.66 44.7659 118.907 43.6487 119.401 42.6873C119.895 41.7258 120.591 40.9766 121.488 40.4395C122.39 39.9023 123.448 39.6338 124.662 39.6338C125.479 39.6338 126.239 39.7654 126.942 40.0286C127.651 40.2864 128.269 40.6758 128.795 41.1968C129.327 41.7178 129.741 42.373 130.036 43.1626C130.331 43.9468 130.479 44.8652 130.479 45.918V46.8606H120.03V44.7336H127.248C127.248 44.2395 127.141 43.8018 126.926 43.4204C126.711 43.0391 126.413 42.741 126.032 42.5261C125.656 42.3059 125.218 42.1958 124.719 42.1958C124.198 42.1958 123.736 42.3167 123.333 42.5583C122.935 42.7947 122.624 43.1143 122.398 43.5171C122.173 43.9146 122.057 44.3577 122.052 44.8464V46.8687C122.052 47.481 122.165 48.01 122.39 48.4558C122.621 48.9016 122.946 49.2454 123.365 49.4871C123.784 49.7288 124.281 49.8496 124.856 49.8496C125.237 49.8496 125.586 49.7959 125.903 49.6885C126.22 49.5811 126.491 49.4199 126.717 49.2051C126.942 48.9902 127.114 48.7271 127.232 48.4155L130.407 48.625C130.245 49.3877 129.915 50.0537 129.416 50.623C128.922 51.187 128.282 51.6274 127.498 51.9443C126.719 52.2559 125.82 52.4116 124.799 52.4116ZM132.719 52.1699V39.7949H136.046V41.9541H136.175C136.401 41.186 136.779 40.606 137.311 40.2139C137.843 39.8164 138.455 39.6177 139.148 39.6177C139.32 39.6177 139.505 39.6284 139.704 39.6499C139.903 39.6714 140.077 39.7009 140.228 39.7385V42.7839C140.067 42.7356 139.844 42.6926 139.559 42.655C139.274 42.6174 139.014 42.5986 138.777 42.5986C138.273 42.5986 137.821 42.7087 137.424 42.929C137.032 43.1438 136.72 43.4446 136.489 43.8313C136.264 44.218 136.151 44.6638 136.151 45.1687V52.1699H132.719ZM152.299 43.3237L149.156 43.5171C149.103 43.2485 148.987 43.0068 148.81 42.792C148.633 42.5718 148.399 42.3972 148.109 42.2683C147.824 42.134 147.483 42.0669 147.086 42.0669C146.554 42.0669 146.106 42.1797 145.74 42.4053C145.375 42.6255 145.193 42.9209 145.193 43.2915C145.193 43.5869 145.311 43.8367 145.547 44.0408C145.783 44.2449 146.189 44.4087 146.764 44.5322L149.003 44.9834C150.206 45.2305 151.103 45.6279 151.694 46.1758C152.285 46.7236 152.581 47.4434 152.581 48.335C152.581 49.146 152.341 49.8577 151.863 50.47C151.391 51.0823 150.741 51.5603 149.914 51.9041C149.092 52.2424 148.144 52.4116 147.07 52.4116C145.432 52.4116 144.126 52.0706 143.154 51.3884C142.187 50.7009 141.621 49.7664 141.454 48.5847L144.83 48.4075C144.932 48.907 145.179 49.2883 145.571 49.5515C145.963 49.8093 146.466 49.9382 147.078 49.9382C147.679 49.9382 148.163 49.8228 148.528 49.5918C148.899 49.3555 149.087 49.052 149.092 48.6814C149.087 48.3699 148.955 48.1147 148.697 47.916C148.439 47.7119 148.042 47.5562 147.505 47.4487L145.362 47.0217C144.153 46.78 143.254 46.3611 142.663 45.7649C142.077 45.1687 141.785 44.4087 141.785 43.4849C141.785 42.6899 141.999 42.0051 142.429 41.4304C142.864 40.8557 143.474 40.4126 144.258 40.1011C145.048 39.7896 145.971 39.6338 147.029 39.6338C148.592 39.6338 149.822 39.9641 150.719 40.6248C151.622 41.2854 152.148 42.1851 152.299 43.3237ZM163.425 35.6699V52.1699H159.993V35.6699H163.425ZM171.765 52.4116C170.514 52.4116 169.432 52.1458 168.519 51.614C167.611 51.0769 166.91 50.3303 166.416 49.3743C165.922 48.4128 165.675 47.2983 165.675 46.0308C165.675 44.7524 165.922 43.6353 166.416 42.6792C166.91 41.7178 167.611 40.9712 168.519 40.4395C169.432 39.9023 170.514 39.6338 171.765 39.6338C173.017 39.6338 174.096 39.9023 175.004 40.4395C175.917 40.9712 176.621 41.7178 177.115 42.6792C177.609 43.6353 177.856 44.7524 177.856 46.0308C177.856 47.2983 177.609 48.4128 177.115 49.3743C176.621 50.3303 175.917 51.0769 175.004 51.614C174.096 52.1458 173.017 52.4116 171.765 52.4116ZM171.781 49.7529C172.351 49.7529 172.826 49.5918 173.208 49.2695C173.589 48.9419 173.876 48.4961 174.07 47.9321C174.268 47.3682 174.368 46.7263 174.368 46.0066C174.368 45.2869 174.268 44.645 174.07 44.0811C173.876 43.5171 173.589 43.0713 173.208 42.7437C172.826 42.416 172.351 42.2522 171.781 42.2522C171.207 42.2522 170.723 42.416 170.331 42.7437C169.945 43.0713 169.652 43.5171 169.453 44.0811C169.26 44.645 169.163 45.2869 169.163 46.0066C169.163 46.7263 169.26 47.3682 169.453 47.9321C169.652 48.4961 169.945 48.9419 170.331 49.2695C170.723 49.5918 171.207 49.7529 171.781 49.7529ZM191.226 39.7949L186.9 52.1699H183.033L178.706 39.7949H182.332L184.902 48.6492H185.031L187.593 39.7949H191.226ZM198.223 52.4116C196.95 52.4116 195.855 52.1538 194.936 51.6382C194.023 51.1172 193.32 50.3813 192.825 49.4307C192.331 48.4746 192.084 47.344 192.084 46.0388C192.084 44.7659 192.331 43.6487 192.825 42.6873C193.32 41.7258 194.015 40.9766 194.912 40.4395C195.814 39.9023 196.873 39.6338 198.086 39.6338C198.903 39.6338 199.663 39.7654 200.366 40.0286C201.075 40.2864 201.693 40.6758 202.219 41.1968C202.751 41.7178 203.165 42.373 203.46 43.1626C203.756 43.9468 203.903 44.8652 203.903 45.918V46.8606H193.454V44.7336H200.673C200.673 44.2395 200.565 43.8018 200.35 43.4204C200.135 43.0391 199.837 42.741 199.456 42.5261C199.08 42.3059 198.642 42.1958 198.143 42.1958C197.622 42.1958 197.16 42.3167 196.757 42.5583C196.36 42.7947 196.048 43.1143 195.823 43.5171C195.597 43.9146 195.481 44.3577 195.476 44.8464V46.8687C195.476 47.481 195.589 48.01 195.814 48.4558C196.045 48.9016 196.37 49.2454 196.789 49.4871C197.208 49.7288 197.705 49.8496 198.28 49.8496C198.661 49.8496 199.01 49.7959 199.327 49.6885C199.644 49.5811 199.915 49.4199 200.141 49.2051C200.366 48.9902 200.538 48.7271 200.656 48.4155L203.831 48.625C203.67 49.3877 203.339 50.0537 202.84 50.623C202.346 51.187 201.707 51.6274 200.922 51.9443C200.144 52.2559 199.244 52.4116 198.223 52.4116ZM219.33 46.9009V39.7949H222.762V52.1699H219.467V49.9221H219.338C219.059 50.6472 218.594 51.23 217.944 51.6704C217.299 52.1108 216.513 52.3311 215.583 52.3311C214.756 52.3311 214.029 52.1431 213.4 51.7671C212.772 51.3911 212.28 50.8567 211.926 50.1638C211.577 49.4709 211.399 48.6411 211.394 47.6743V39.7949H214.826V47.062C214.831 47.7925 215.028 48.3699 215.414 48.7942C215.801 49.2185 216.319 49.4307 216.969 49.4307C217.383 49.4307 217.769 49.3367 218.129 49.1487C218.489 48.9553 218.779 48.6707 218.999 48.2947C219.225 47.9187 219.335 47.4541 219.33 46.9009ZM235.804 43.3237L232.661 43.5171C232.608 43.2485 232.492 43.0068 232.315 42.792C232.138 42.5718 231.904 42.3972 231.614 42.2683C231.329 42.134 230.988 42.0669 230.591 42.0669C230.059 42.0669 229.611 42.1797 229.245 42.4053C228.88 42.6255 228.698 42.9209 228.698 43.2915C228.698 43.5869 228.816 43.8367 229.052 44.0408C229.288 44.2449 229.694 44.4087 230.269 44.5322L232.508 44.9834C233.712 45.2305 234.609 45.6279 235.199 46.1758C235.79 46.7236 236.086 47.4434 236.086 48.335C236.086 49.146 235.847 49.8577 235.369 50.47C234.896 51.0823 234.246 51.5603 233.419 51.9041C232.597 52.2424 231.649 52.4116 230.575 52.4116C228.937 52.4116 227.631 52.0706 226.659 51.3884C225.693 50.7009 225.126 49.7664 224.959 48.5847L228.335 48.4075C228.437 48.907 228.684 49.2883 229.076 49.5515C229.468 49.8093 229.971 49.9382 230.583 49.9382C231.184 49.9382 231.668 49.8228 232.033 49.5918C232.404 49.3555 232.592 49.052 232.597 48.6814C232.592 48.3699 232.46 48.1147 232.202 47.916C231.944 47.7119 231.547 47.5562 231.01 47.4487L228.867 47.0217C227.658 46.78 226.759 46.3611 226.168 45.7649C225.582 45.1687 225.29 44.4087 225.29 43.4849C225.29 42.6899 225.505 42.0051 225.934 41.4304C226.369 40.8557 226.979 40.4126 227.763 40.1011C228.553 39.7896 229.476 39.6338 230.535 39.6338C232.098 39.6338 233.328 39.9641 234.224 40.6248C235.127 41.2854 235.653 42.1851 235.804 43.3237Z" fill="#26422B"/>
<defs>
<clipPath id="clip0_238_2078">
<rect width="32" height="32" fill="white" transform="translate(32.5 28.1699)"/>
</clipPath>
<clipPath id="clip1_238_2078">
<rect width="32" height="32" fill="white" transform="translate(32.5 28.1699)"/>
</clipPath>
</defs>
</svg>
