<svg width="202" height="89" viewBox="0 0 202 89" fill="none" xmlns="http://www.w3.org/2000/svg">
<rect y="0.169922" width="201.2" height="88" rx="8" fill="#CAF1B1"/>
<rect x="24" y="20.1699" width="48" height="48" rx="24" fill="white"/>
<g clip-path="url(#clip0_238_2060)">
<g clip-path="url(#clip1_238_2060)">
<path d="M49.1639 50.0949V52.5099H54.982V54.8523H41.0184V52.5099H46.8366V50.0949C42.2445 49.5185 38.6911 45.5756 38.6911 40.7975V33.77H57.3093V40.7975C57.3093 45.5756 53.7559 49.5185 49.1639 50.0949ZM41.0184 36.1125V40.7975C41.0184 44.6786 44.1442 47.8249 48.0002 47.8249C51.8561 47.8249 54.982 44.6786 54.982 40.7975V36.1125H41.0184ZM35.2002 36.1125H37.5275V40.7975H35.2002V36.1125ZM58.4729 36.1125H60.8002V40.7975H58.4729V36.1125Z" fill="#273F2B"/>
</g>
</g>
<path d="M89.4341 40.1699V23.6699H92.9226V37.2937H99.9963V40.1699H89.4341ZM107.882 40.4116C106.609 40.4116 105.513 40.1538 104.595 39.6382C103.682 39.1172 102.978 38.3813 102.484 37.4307C101.99 36.4746 101.743 35.344 101.743 34.0388C101.743 32.7659 101.99 31.6487 102.484 30.6873C102.978 29.7258 103.674 28.9766 104.57 28.4395C105.473 27.9023 106.531 27.6338 107.745 27.6338C108.561 27.6338 109.321 27.7654 110.025 28.0286C110.734 28.2864 111.352 28.6758 111.878 29.1968C112.41 29.7178 112.823 30.373 113.119 31.1626C113.414 31.9468 113.562 32.8652 113.562 33.918V34.8606H103.112V32.7336H110.331C110.331 32.2395 110.224 31.8018 110.009 31.4204C109.794 31.0391 109.496 30.741 109.114 30.5261C108.738 30.3059 108.301 30.1958 107.801 30.1958C107.28 30.1958 106.818 30.3167 106.415 30.5583C106.018 30.7947 105.706 31.1143 105.481 31.5171C105.255 31.9146 105.14 32.3577 105.134 32.8464V34.8687C105.134 35.481 105.247 36.01 105.473 36.4558C105.704 36.9016 106.029 37.2454 106.448 37.4871C106.867 37.7288 107.363 37.8496 107.938 37.8496C108.32 37.8496 108.669 37.7959 108.986 37.6885C109.302 37.5811 109.574 37.4199 109.799 37.2051C110.025 36.9902 110.197 36.7271 110.315 36.4155L113.489 36.625C113.328 37.3877 112.998 38.0537 112.498 38.623C112.004 39.187 111.365 39.6274 110.581 39.9443C109.802 40.2559 108.902 40.4116 107.882 40.4116ZM119.33 40.4036C118.541 40.4036 117.837 40.2666 117.219 39.9927C116.602 39.7134 116.113 39.3025 115.753 38.76C115.399 38.2122 115.221 37.53 115.221 36.7136C115.221 36.0261 115.348 35.4487 115.6 34.9814C115.852 34.5142 116.196 34.1382 116.631 33.8535C117.066 33.5688 117.56 33.354 118.114 33.209C118.672 33.064 119.258 32.9619 119.87 32.9028C120.59 32.8276 121.17 32.7578 121.61 32.6934C122.051 32.6235 122.37 32.5215 122.569 32.3872C122.768 32.2529 122.867 32.0542 122.867 31.791V31.7427C122.867 31.2324 122.706 30.8376 122.384 30.5583C122.067 30.2791 121.616 30.1394 121.03 30.1394C120.413 30.1394 119.921 30.2764 119.556 30.5503C119.191 30.8188 118.949 31.1572 118.831 31.5654L115.656 31.3076C115.818 30.5557 116.134 29.9058 116.607 29.3579C117.08 28.8047 117.689 28.3804 118.436 28.085C119.188 27.7842 120.058 27.6338 121.046 27.6338C121.734 27.6338 122.392 27.7144 123.02 27.8755C123.654 28.0366 124.215 28.2864 124.704 28.6248C125.198 28.9631 125.588 29.3982 125.872 29.9299C126.157 30.4563 126.299 31.0874 126.299 31.8232V40.1699H123.044V38.4539H122.948C122.749 38.8406 122.483 39.1816 122.15 39.4771C121.817 39.7671 121.417 39.9954 120.95 40.1619C120.482 40.323 119.943 40.4036 119.33 40.4036ZM120.313 38.0349C120.818 38.0349 121.264 37.9355 121.651 37.7368C122.037 37.5327 122.341 37.2588 122.561 36.915C122.781 36.5713 122.891 36.1819 122.891 35.7468V34.4336C122.784 34.5034 122.636 34.5679 122.448 34.627C122.266 34.6807 122.059 34.7317 121.828 34.78C121.597 34.823 121.366 34.8633 121.135 34.9009C120.904 34.9331 120.695 34.9626 120.507 34.9895C120.104 35.0486 119.752 35.1426 119.451 35.2715C119.15 35.4004 118.917 35.575 118.75 35.7952C118.584 36.01 118.5 36.2786 118.5 36.6008C118.5 37.0681 118.67 37.4253 119.008 37.6724C119.352 37.9141 119.787 38.0349 120.313 38.0349ZM133.522 40.3713C132.582 40.3713 131.731 40.1296 130.968 39.6462C130.211 39.1575 129.609 38.4404 129.163 37.4951C128.723 36.5444 128.503 35.3789 128.503 33.9985C128.503 32.5806 128.731 31.4016 129.188 30.4617C129.644 29.5164 130.251 28.8101 131.008 28.3428C131.771 27.8701 132.606 27.6338 133.514 27.6338C134.207 27.6338 134.784 27.752 135.246 27.9883C135.713 28.2192 136.089 28.5093 136.374 28.8584C136.664 29.2021 136.884 29.5405 137.035 29.8735H137.139V23.6699H140.564V40.1699H137.18V38.188H137.035C136.874 38.5317 136.645 38.8728 136.35 39.2112C136.06 39.5442 135.681 39.8208 135.214 40.041C134.752 40.2612 134.188 40.3713 133.522 40.3713ZM134.61 37.6401C135.163 37.6401 135.63 37.4897 136.012 37.189C136.398 36.8828 136.694 36.4558 136.898 35.908C137.107 35.3601 137.212 34.7183 137.212 33.9824C137.212 33.2466 137.11 32.6074 136.906 32.0649C136.702 31.5225 136.406 31.1035 136.02 30.8081C135.633 30.5127 135.163 30.365 134.61 30.365C134.046 30.365 133.57 30.5181 133.184 30.8242C132.797 31.1304 132.504 31.5547 132.305 32.0972C132.107 32.6396 132.007 33.2681 132.007 33.9824C132.007 34.7021 132.107 35.3386 132.305 35.8918C132.51 36.4397 132.802 36.8694 133.184 37.1809C133.57 37.4871 134.046 37.6401 134.61 37.6401ZM149.025 40.4116C147.752 40.4116 146.656 40.1538 145.738 39.6382C144.825 39.1172 144.121 38.3813 143.627 37.4307C143.133 36.4746 142.886 35.344 142.886 34.0388C142.886 32.7659 143.133 31.6487 143.627 30.6873C144.121 29.7258 144.817 28.9766 145.714 28.4395C146.616 27.9023 147.674 27.6338 148.888 27.6338C149.704 27.6338 150.464 27.7654 151.168 28.0286C151.877 28.2864 152.495 28.6758 153.021 29.1968C153.553 29.7178 153.966 30.373 154.262 31.1626C154.557 31.9468 154.705 32.8652 154.705 33.918V34.8606H144.255V32.7336H151.474C151.474 32.2395 151.367 31.8018 151.152 31.4204C150.937 31.0391 150.639 30.741 150.258 30.5261C149.882 30.3059 149.444 30.1958 148.944 30.1958C148.423 30.1958 147.962 30.3167 147.559 30.5583C147.161 30.7947 146.85 31.1143 146.624 31.5171C146.399 31.9146 146.283 32.3577 146.278 32.8464V34.8687C146.278 35.481 146.391 36.01 146.616 36.4558C146.847 36.9016 147.172 37.2454 147.591 37.4871C148.01 37.7288 148.507 37.8496 149.081 37.8496C149.463 37.8496 149.812 37.7959 150.129 37.6885C150.446 37.5811 150.717 37.4199 150.943 37.2051C151.168 36.9902 151.34 36.7271 151.458 36.4155L154.632 36.625C154.471 37.3877 154.141 38.0537 153.641 38.623C153.147 39.187 152.508 39.6274 151.724 39.9443C150.945 40.2559 150.046 40.4116 149.025 40.4116ZM156.945 40.1699V27.7949H160.272V29.9541H160.401C160.627 29.186 161.005 28.606 161.537 28.2139C162.069 27.8164 162.681 27.6177 163.374 27.6177C163.546 27.6177 163.731 27.6284 163.93 27.6499C164.129 27.6714 164.303 27.7009 164.453 27.7385V30.7839C164.292 30.7356 164.069 30.6926 163.785 30.655C163.5 30.6174 163.24 30.5986 163.003 30.5986C162.498 30.5986 162.047 30.7087 161.65 30.929C161.258 31.1438 160.946 31.4446 160.715 31.8313C160.49 32.218 160.377 32.6638 160.377 33.1687V40.1699H156.945Z" fill="#26422B"/>
<path d="M91.3345 65.1699L88.3089 54.2608H90.0401L92.1655 62.709H92.2667L94.4773 54.2608H96.1925L98.4031 62.7143H98.5043L100.624 54.2608H102.361L99.3299 65.1699H97.6733L95.3775 56.9988H95.2923L92.9964 65.1699H91.3345ZM103.734 65.1699V56.9881H105.326V65.1699H103.734ZM104.538 55.7257C104.261 55.7257 104.023 55.6333 103.824 55.4487C103.629 55.2605 103.531 55.0368 103.531 54.7775C103.531 54.5147 103.629 54.291 103.824 54.1064C104.023 53.9181 104.261 53.824 104.538 53.824C104.815 53.824 105.051 53.9181 105.247 54.1064C105.445 54.291 105.545 54.5147 105.545 54.7775C105.545 55.0368 105.445 55.2605 105.247 55.4487C105.051 55.6333 104.815 55.7257 104.538 55.7257ZM109.062 60.312V65.1699H107.469V56.9881H108.998V58.3198H109.099C109.287 57.8865 109.582 57.5385 109.983 57.2757C110.388 57.013 110.898 56.8816 111.512 56.8816C112.07 56.8816 112.558 56.9988 112.977 57.2331C113.396 57.464 113.721 57.8084 113.952 58.2665C114.183 58.7246 114.298 59.291 114.298 59.9657V65.1699H112.705V60.1575C112.705 59.5645 112.551 59.101 112.242 58.7672C111.933 58.4299 111.509 58.2612 110.969 58.2612C110.599 58.2612 110.271 58.3411 109.983 58.5009C109.699 58.6607 109.474 58.8951 109.307 59.204C109.143 59.5094 109.062 59.8787 109.062 60.312ZM120.253 56.9881V58.2665H115.784V56.9881H120.253ZM116.983 55.0279H118.575V62.7676C118.575 63.0765 118.621 63.3091 118.714 63.4654C118.806 63.6181 118.925 63.7228 119.071 63.7797C119.22 63.8329 119.381 63.8596 119.555 63.8596C119.683 63.8596 119.795 63.8507 119.891 63.8329C119.987 63.8152 120.061 63.801 120.115 63.7903L120.402 65.106C120.31 65.1415 120.179 65.177 120.008 65.2125C119.838 65.2516 119.625 65.2729 119.369 65.2765C118.95 65.2836 118.559 65.209 118.197 65.0527C117.835 64.8965 117.542 64.655 117.318 64.3283C117.094 64.0016 116.983 63.5914 116.983 63.0978V55.0279ZM125.453 65.335C124.647 65.335 123.953 65.1628 123.371 64.8184C122.792 64.4703 122.344 63.9821 122.028 63.3535C121.716 62.7214 121.56 61.981 121.56 61.1323C121.56 60.2942 121.716 59.5556 122.028 58.9164C122.344 58.2772 122.785 57.7782 123.349 57.4196C123.918 57.0609 124.582 56.8816 125.342 56.8816C125.803 56.8816 126.251 56.9579 126.684 57.1106C127.117 57.2633 127.506 57.503 127.85 57.8297C128.195 58.1564 128.467 58.5808 128.665 59.1028C128.864 59.6213 128.964 60.2516 128.964 60.9938V61.5584H122.46V60.3652H127.403C127.403 59.9462 127.318 59.5751 127.147 59.252C126.977 58.9252 126.737 58.6678 126.428 58.4796C126.123 58.2914 125.764 58.1973 125.352 58.1973C124.905 58.1973 124.514 58.3074 124.18 58.5275C123.85 58.7441 123.594 59.0282 123.413 59.3798C123.236 59.7278 123.147 60.106 123.147 60.5144V61.4466C123.147 61.9934 123.243 62.4586 123.435 62.8422C123.63 63.2257 123.902 63.5186 124.25 63.7211C124.598 63.9199 125.004 64.0194 125.469 64.0194C125.771 64.0194 126.046 63.9767 126.295 63.8915C126.544 63.8027 126.758 63.6713 126.94 63.4973C127.121 63.3233 127.259 63.1085 127.355 62.8528L128.862 63.1245C128.742 63.5684 128.525 63.9572 128.213 64.291C127.904 64.6213 127.515 64.8787 127.046 65.0634C126.581 65.2445 126.05 65.335 125.453 65.335ZM130.731 65.1699V56.9881H132.27V58.2878H132.355C132.505 57.8475 132.767 57.5012 133.144 57.2491C133.524 56.9934 133.953 56.8656 134.433 56.8656C134.532 56.8656 134.65 56.8691 134.784 56.8762C134.923 56.8833 135.031 56.8922 135.109 56.9029V58.4263C135.045 58.4086 134.932 58.389 134.768 58.3677C134.605 58.3429 134.442 58.3304 134.278 58.3304C133.902 58.3304 133.566 58.4103 133.272 58.5701C132.98 58.7264 132.75 58.9448 132.579 59.2253C132.409 59.5023 132.324 59.8184 132.324 60.1735V65.1699H130.731ZM140.436 65.1699V63.9767L144.127 60.1522C144.522 59.7367 144.847 59.3727 145.102 59.0602C145.362 58.7441 145.555 58.4441 145.683 58.16C145.811 57.8759 145.875 57.574 145.875 57.2544C145.875 56.8922 145.789 56.5797 145.619 56.3169C145.449 56.0506 145.216 55.8464 144.921 55.7044C144.626 55.5588 144.294 55.486 143.925 55.486C143.534 55.486 143.194 55.5659 142.902 55.7257C142.611 55.8855 142.387 56.111 142.231 56.4022C142.075 56.6934 141.997 57.0343 141.997 57.4249H140.425C140.425 56.7608 140.578 56.1802 140.884 55.6831C141.189 55.1859 141.608 54.8006 142.141 54.5272C142.673 54.2502 143.279 54.1117 143.957 54.1117C144.642 54.1117 145.246 54.2484 145.768 54.5218C146.294 54.7917 146.704 55.161 146.999 55.6298C147.293 56.095 147.441 56.6206 147.441 57.2065C147.441 57.6113 147.364 58.0073 147.212 58.3944C147.063 58.7814 146.801 59.2129 146.429 59.6887C146.056 60.161 145.537 60.7346 144.873 61.4093L142.705 63.6784V63.7583H147.616V65.1699H140.436ZM153.433 65.351C152.592 65.3475 151.873 65.1255 151.276 64.6852C150.679 64.2449 150.223 63.6039 149.907 62.7623C149.591 61.9206 149.433 60.9068 149.433 59.7207C149.433 58.5382 149.591 57.5279 149.907 56.6898C150.227 55.8517 150.685 55.2125 151.281 54.7722C151.881 54.3319 152.599 54.1117 153.433 54.1117C154.268 54.1117 154.983 54.3336 155.58 54.7775C156.176 55.2179 156.633 55.8571 156.949 56.6951C157.268 57.5297 157.428 58.5382 157.428 59.7207C157.428 60.9103 157.27 61.926 156.954 62.7676C156.638 63.6056 156.182 64.2466 155.585 64.6905C154.989 65.1309 154.271 65.351 153.433 65.351ZM153.433 63.9288C154.172 63.9288 154.749 63.5684 155.164 62.8475C155.583 62.1266 155.793 61.0843 155.793 59.7207C155.793 58.8152 155.697 58.0499 155.505 57.4249C155.317 56.7963 155.045 56.3205 154.69 55.9973C154.339 55.6706 153.92 55.5073 153.433 55.5073C152.698 55.5073 152.121 55.8695 151.702 56.5939C151.283 57.3184 151.072 58.3606 151.068 59.7207C151.068 60.6298 151.162 61.3986 151.35 62.0272C151.542 62.6522 151.814 63.1262 152.165 63.4494C152.517 63.769 152.94 63.9288 153.433 63.9288ZM159.318 65.1699V63.9767L163.009 60.1522C163.403 59.7367 163.728 59.3727 163.984 59.0602C164.243 58.7441 164.437 58.4441 164.565 58.16C164.693 57.8759 164.756 57.574 164.756 57.2544C164.756 56.8922 164.671 56.5797 164.501 56.3169C164.33 56.0506 164.098 55.8464 163.803 55.7044C163.508 55.5588 163.176 55.486 162.807 55.486C162.416 55.486 162.075 55.5659 161.784 55.7257C161.493 55.8855 161.269 56.111 161.113 56.4022C160.957 56.6934 160.879 57.0343 160.879 57.4249H159.307C159.307 56.7608 159.46 56.1802 159.765 55.6831C160.071 55.1859 160.49 54.8006 161.022 54.5272C161.555 54.2502 162.161 54.1117 162.839 54.1117C163.524 54.1117 164.128 54.2484 164.65 54.5218C165.176 54.7917 165.586 55.161 165.88 55.6298C166.175 56.095 166.323 56.6206 166.323 57.2065C166.323 57.6113 166.246 58.0073 166.093 58.3944C165.944 58.7814 165.683 59.2129 165.31 59.6887C164.938 60.161 164.419 60.7346 163.755 61.4093L161.587 63.6784V63.7583H166.498V65.1699H159.318ZM172.315 65.3191C171.584 65.3191 170.93 65.193 170.355 64.9409C169.783 64.6887 169.33 64.339 168.997 63.8915C168.666 63.4405 168.489 62.9185 168.464 62.3255H170.136C170.158 62.6486 170.266 62.9292 170.461 63.1671C170.66 63.4015 170.919 63.5826 171.239 63.7104C171.559 63.8382 171.914 63.9022 172.304 63.9022C172.734 63.9022 173.114 63.8276 173.444 63.6784C173.778 63.5293 174.039 63.3216 174.227 63.0552C174.416 62.7853 174.51 62.4746 174.51 62.123C174.51 61.7573 174.416 61.4359 174.227 61.1589C174.043 60.8784 173.771 60.6582 173.412 60.4984C173.057 60.3386 172.628 60.2587 172.123 60.2587H171.202V58.9164H172.123C172.528 58.9164 172.883 58.8436 173.189 58.698C173.498 58.5524 173.739 58.35 173.913 58.0907C174.087 57.8279 174.174 57.5208 174.174 57.1692C174.174 56.8319 174.098 56.5389 173.945 56.2903C173.796 56.0382 173.583 55.8411 173.306 55.699C173.032 55.557 172.709 55.486 172.336 55.486C171.981 55.486 171.649 55.5517 171.34 55.6831C171.035 55.8109 170.786 55.9956 170.595 56.237C170.403 56.475 170.3 56.7608 170.286 57.0946H168.693C168.711 56.5051 168.885 55.9867 169.215 55.5392C169.549 55.0918 169.989 54.742 170.536 54.4899C171.083 54.2377 171.69 54.1117 172.358 54.1117C173.057 54.1117 173.661 54.2484 174.169 54.5218C174.68 54.7917 175.074 55.1522 175.351 55.6032C175.632 56.0542 175.77 56.5478 175.767 57.084C175.77 57.6948 175.6 58.2132 175.255 58.6394C174.915 59.0655 174.46 59.3514 173.892 59.497V59.5822C174.616 59.6923 175.177 59.9799 175.575 60.4451C175.976 60.9103 176.175 61.4874 176.172 62.1763C176.175 62.7765 176.008 63.3145 175.671 63.7903C175.337 64.2662 174.881 64.6408 174.302 64.9142C173.723 65.1841 173.061 65.3191 172.315 65.3191Z" fill="#26422B"/>
<defs>
<clipPath id="clip0_238_2060">
<rect width="32" height="32" fill="white" transform="translate(32 28.1699)"/>
</clipPath>
<clipPath id="clip1_238_2060">
<rect width="32" height="32" fill="white" transform="translate(32 28.1699)"/>
</clipPath>
</defs>
</svg>
